<?xml version="1.0" encoding="UTF-8"?><svg version="1.1" xmlns="http://www.w3.org/2000/svg" xmlns:xlink="http://www.w3.org/1999/xlink" viewBox="0 0 1600 1200" width="1600" height="1200" x="0px" y="0px">
    
    
    <!-- ITEM 0 -->
    <g>
        <defs>
            <clipPath id="clip-path-id-viewbox-item-0">
                <rect x="0.0" y="0.0" width="335.306" height="17.796"/>
            </clipPath>
        </defs>
        <g transform="translate(492.0 858.0) rotate(0.0 342.5 18.5) scale(2.042910058275128 2.079118903124298)">
            <g clip-path="url(#clip-path-id-viewbox-item-0)" transform="translate(-0.0 -0.0)">
                
<g>
	<g>
		<path fill="#1D2445" d="M136.062,11.153c1.9,1.258,7.14,2.124,12.685,1.505"/>
		<path fill="#1D2445" d="M145.056,14.86c-4.236,0-8.152-0.752-10.099-2.04l2.209-3.335c1.33,0.88,6.018,1.781,11.358,1.185    l0.443,3.975C147.665,14.79,146.346,14.86,145.056,14.86z"/>
	</g>
	<g>
		<path fill="#1D2445" d="M324.15,9.668c2.2-0.593,6.316-3.951,9.518-8.52"/>
		<path fill="#1D2445" d="M324.67,11.599l-1.041-3.862c1.54-0.415,5.316-3.335,8.401-7.737l3.275,2.296    C332.084,6.894,327.61,10.806,324.67,11.599z"/>
	</g>
	<g>
		<path fill="#1D2445" d="M101.22,8.46c2.273-0.16,6.956-2.665,10.976-6.534"/>
		<path fill="#1D2445" d="M101.361,10.456l-0.281-3.99c1.59-0.112,5.856-2.252,9.73-5.98l2.773,2.882    C109.538,7.26,104.397,10.241,101.361,10.456z"/>
	</g>
	<g>
		<polygon fill="#1D2445" points="236.968,17.097 233.107,11.778 239.052,10.152 242.288,13.237   "/>
		<path fill="#1D2445" d="M236.856,17.796l-4.578-6.309l6.914-1.891l3.875,3.694L236.856,17.796z M233.937,12.069l3.143,4.33    l4.43-3.215l-2.598-2.475L233.937,12.069z"/>
	</g>
	<g>
		<polygon fill="#1D2445" points="293.994,17.097 290.134,11.778 296.078,10.152 299.315,13.237   "/>
		<path fill="#1D2445" d="M293.883,17.796l-4.578-6.309l6.914-1.891l3.875,3.694L293.883,17.796z M290.963,12.069l3.143,4.33    l4.43-3.215l-2.598-2.475L290.963,12.069z"/>
	</g>
	<g>
		<polygon fill="#1D2445" points="59.708,13.154 55.847,7.833 61.793,6.208 65.028,9.293   "/>
		<path fill="#1D2445" d="M59.597,13.852l-4.58-6.311l6.916-1.89l3.874,3.694L59.597,13.852z M56.677,8.125l3.142,4.331l4.43-3.215    l-2.597-2.476L56.677,8.125z"/>
	</g>
	<g>
		<path fill="#1D2445" d="M204.637,1.336c0,0,2.086,4.927-2.996,3.608c-6.04-1.569-4.325,5.208-4.325,5.208"/>
		<path fill="#1D2445" d="M195.377,10.643c-0.113-0.445-1.035-4.409,1.199-6.63c0.892-0.886,2.579-1.781,5.567-1.005    c0.425,0.11,0.72,0.148,0.912,0.158c-0.028-0.305-0.131-0.734-0.265-1.06l3.688-1.55c0.237,0.562,1.34,3.459-0.306,5.366    c-1.061,1.228-2.755,1.549-5.035,0.958c-1.107-0.287-1.614-0.154-1.741-0.03c-0.376,0.371-0.385,1.821-0.141,2.82L195.377,10.643z    "/>
	</g>
	<g>
		<path fill="#1D2445" d="M11.955,8.452c0,0-3.888,3.677-4.427-1.547c-0.64-6.208-6.391-2.233-6.391-2.233"/>
		<path fill="#1D2445" d="M9.411,11.71c-0.398,0-0.806-0.064-1.215-0.216C6.675,10.93,5.781,9.456,5.539,7.111    c-0.118-1.14-0.421-1.569-0.581-1.643c-0.525-0.24-1.962,0.352-2.684,0.85L0,3.027c0.377-0.261,3.771-2.51,6.631-1.192    c1.142,0.526,2.57,1.797,2.886,4.866C9.563,7.137,9.63,7.427,9.689,7.61c0.275-0.133,0.642-0.379,0.9-0.618l2.741,2.913    C12.963,10.252,11.308,11.71,9.411,11.71z"/>
	</g>
</g>

            </g>
        </g>
    </g>
    
    <!-- ITEM 1 -->
    <g>
        <defs>
            <clipPath id="clip-path-id-viewbox-item-1">
                <rect x="0.0" y="0.0" width="637.02" height="333.0"/>
            </clipPath>
        </defs>
        <g transform="translate(141.0 137.0) rotate(0.0 661.5 346.0) scale(2.0768578694546482 2.078078078078078)">
            <g clip-path="url(#clip-path-id-viewbox-item-1)" transform="translate(-0.0 -0.0)">
                
<g>
	<g>
		<rect x="347.42" y="0.5" fill="#FFFFFF" width="57.82" height="332"/>
		<path fill="#1D2445" d="M405.24,333h-57.82c-0.276,0-0.5-0.224-0.5-0.5V0.5c0-0.276,0.224-0.5,0.5-0.5h57.82    c0.276,0,0.5,0.224,0.5,0.5v332C405.74,332.776,405.517,333,405.24,333z M347.92,332h56.82V1h-56.82V332z"/>
	</g>
	<g>
		<rect x="289.6" y="0.5" fill="#FFFFFF" width="57.82" height="332"/>
		<path fill="#1D2445" d="M347.42,333H289.6c-0.276,0-0.5-0.224-0.5-0.5V0.5c0-0.276,0.224-0.5,0.5-0.5h57.82    c0.276,0,0.5,0.224,0.5,0.5v332C347.92,332.776,347.697,333,347.42,333z M290.1,332h56.82V1H290.1V332z"/>
	</g>
	<g>
		<rect x="405.24" y="0.5" fill="#FFFFFF" width="57.82" height="332"/>
		<path fill="#1D2445" d="M463.06,333H405.24c-0.276,0-0.5-0.224-0.5-0.5V0.5c0-0.276,0.224-0.5,0.5-0.5h57.819    c0.276,0,0.5,0.224,0.5,0.5v332C463.56,332.776,463.336,333,463.06,333z M405.74,332h56.819V1H405.74V332z"/>
	</g>
	<g>
		<rect x="520.88" y="0.5" fill="#FFFFFF" width="57.82" height="332"/>
		<path fill="#1D2445" d="M578.7,333h-57.82c-0.276,0-0.5-0.224-0.5-0.5V0.5c0-0.276,0.224-0.5,0.5-0.5h57.82    c0.276,0,0.5,0.224,0.5,0.5v332C579.2,332.776,578.977,333,578.7,333z M521.38,332h56.82V1h-56.82V332z"/>
	</g>
	<g>
		<rect x="173.96" y="0.5" fill="#FFFFFF" width="57.82" height="332"/>
		<path fill="#1D2445" d="M231.78,333h-57.82c-0.276,0-0.5-0.224-0.5-0.5V0.5c0-0.276,0.224-0.5,0.5-0.5h57.82    c0.276,0,0.5,0.224,0.5,0.5v332C232.28,332.776,232.056,333,231.78,333z M174.46,332h56.82V1h-56.82V332z"/>
	</g>
	<g>
		<rect x="58.32" y="0.5" fill="#FFFFFF" width="57.82" height="332"/>
		<path fill="#1D2445" d="M116.14,333H58.32c-0.276,0-0.5-0.224-0.5-0.5V0.5c0-0.276,0.224-0.5,0.5-0.5h57.82    c0.276,0,0.5,0.224,0.5,0.5v332C116.64,332.776,116.416,333,116.14,333z M58.82,332h56.82V1H58.82V332z"/>
	</g>
	<g>
		<rect x="463.06" y="0.5" fill="#FFFFFF" width="57.82" height="332"/>
		<path fill="#1D2445" d="M520.88,333h-57.82c-0.276,0-0.5-0.224-0.5-0.5V0.5c0-0.276,0.224-0.5,0.5-0.5h57.82    c0.276,0,0.5,0.224,0.5,0.5v332C521.38,332.776,521.156,333,520.88,333z M463.56,332h56.82V1h-56.82V332z"/>
	</g>
	<g>
		<rect x="578.7" y="0.5" fill="#FFFFFF" width="57.82" height="332"/>
		<path fill="#1D2445" d="M636.52,333H578.7c-0.276,0-0.5-0.224-0.5-0.5V0.5c0-0.276,0.224-0.5,0.5-0.5h57.819    c0.276,0,0.5,0.224,0.5,0.5v332C637.02,332.776,636.796,333,636.52,333z M579.2,332h56.819V1H579.2V332z"/>
	</g>
	<g>
		<rect x="231.78" y="0.5" fill="#FFFFFF" width="57.82" height="332"/>
		<path fill="#1D2445" d="M289.6,333h-57.82c-0.276,0-0.5-0.224-0.5-0.5V0.5c0-0.276,0.224-0.5,0.5-0.5h57.82    c0.276,0,0.5,0.224,0.5,0.5v332C290.1,332.776,289.876,333,289.6,333z M232.28,332h56.82V1h-56.82V332z"/>
	</g>
	<g>
		<rect x="116.14" y="0.5" fill="#FFFFFF" width="57.82" height="332"/>
		<path fill="#1D2445" d="M173.96,333h-57.82c-0.276,0-0.5-0.224-0.5-0.5V0.5c0-0.276,0.224-0.5,0.5-0.5h57.82    c0.276,0,0.5,0.224,0.5,0.5v332C174.46,332.776,174.237,333,173.96,333z M116.64,332h56.82V1h-56.82V332z"/>
	</g>
	<g>
		<rect x="0.5" y="0.5" fill="#FFFFFF" width="57.82" height="332"/>
		<path fill="#1D2445" d="M58.32,333H0.5c-0.276,0-0.5-0.224-0.5-0.5V0.5C0,0.224,0.224,0,0.5,0h57.82c0.276,0,0.5,0.224,0.5,0.5    v332C58.82,332.776,58.596,333,58.32,333z M1,332h56.82V1H1V332z"/>
	</g>
</g>

            </g>
        </g>
    </g>
    
    <!-- ITEM 2 -->
    <g>
        <defs>
            <clipPath id="clip-path-id-viewbox-item-2">
                <rect x="0.0" y="0.0" width="488.196" height="235.161"/>
            </clipPath>
        </defs>
        <g transform="translate(266.0 286.0) rotate(0.0 514.0 248.0) scale(2.1057116404067218 2.1091932760959513)">
            <g clip-path="url(#clip-path-id-viewbox-item-2)" transform="translate(-0.0 -0.0)">
                
<g>
	<g>
		<path fill="#1D2445" d="M129.911,53.895c-6.146,0-11.146-5-11.146-11.145h4c0,3.94,3.206,7.145,7.146,7.145V53.895z"/>
	</g>
	<g>
		<path fill="#1D2445" d="M52.546,79.85l-1.013-3.87c3.812-0.997,6.101-4.91,5.104-8.721l3.87-1.012    C62.062,72.192,58.491,78.294,52.546,79.85z"/>
	</g>
	<g>
		<path fill="#1D2445" d="M10.331,196.643c-4.395,0-8.568-2.615-10.331-6.927l3.702-1.514c1.491,3.646,5.67,5.4,9.318,3.91    l1.514,3.703C13.158,196.377,11.733,196.643,10.331,196.643z"/>
	</g>
	<g>
		<path fill="#1D2445" d="M292.463,235.161c-4.395,0-8.568-2.615-10.331-6.927l3.703-1.514c1.49,3.647,5.673,5.4,9.317,3.91    l1.514,3.703C295.29,234.895,293.865,235.161,292.463,235.161z"/>
	</g>
	<g>
		<path fill="#1D2445" d="M478.057,219.561c-1.559,0-3.142-0.328-4.647-1.023l1.674-3.633c3.576,1.647,7.831,0.081,9.48-3.497    l3.633,1.675C486.317,217.156,482.273,219.561,478.057,219.561z"/>
	</g>
	<g>
		<path fill="#1D2445" d="M209.288,6.243c-2.74,0-5.485-1.001-7.634-3.022l2.741-2.914c2.869,2.699,7.4,2.562,10.1-0.307    l2.913,2.742C215.218,5.068,212.256,6.243,209.288,6.243z"/>
	</g>
	<g>
		<path fill="#1D2445" d="M430.991,86.209c-2.852-0.856-5.198-2.772-6.609-5.393c-1.41-2.622-1.715-5.636-0.858-8.487l3.83,1.151    c-0.549,1.828-0.354,3.76,0.551,5.441s2.409,2.909,4.237,3.458L430.991,86.209z"/>
	</g>
	<g>
		<path fill="#1D2445" d="M250.985,157.44c-1.65,0-3.324-0.367-4.902-1.144l1.766-3.589c3.536,1.74,7.827,0.278,9.565-3.258    l3.59,1.766C259.066,155.152,255.101,157.44,250.985,157.44z"/>
	</g>
	<g>
		<path fill="#1D2445" d="M321.455,75.711c-2.74,0-5.485-1.001-7.634-3.022l2.74-2.914c2.871,2.699,7.4,2.562,10.101-0.307    l2.912,2.741C327.385,74.536,324.423,75.711,321.455,75.711z"/>
	</g>
	<g>
		<path fill="#1D2445" d="M414.969,28.188l-2.059-3.429c3.377-2.029,4.475-6.427,2.446-9.803l3.43-2.06    C421.949,18.164,420.237,25.024,414.969,28.188z"/>
	</g>
	<g>
		<path fill="#1D2445" d="M12.249,143.439c-0.972,0-1.95-0.128-2.914-0.387l1.039-3.863c1.843,0.496,3.768,0.244,5.422-0.708    c1.654-0.953,2.838-2.492,3.334-4.335l3.862,1.04c-0.773,2.875-2.62,5.276-5.2,6.762    C16.079,142.935,14.176,143.439,12.249,143.439z"/>
	</g>
	<g>
		<path fill="#1D2445" d="M335.41,210.729c-0.957,0-1.928-0.124-2.894-0.384l1.039-3.863c3.802,1.023,7.734-1.238,8.757-5.043    l3.863,1.04C344.839,207.447,340.325,210.729,335.41,210.729z"/>
	</g>
	<g>
		<path fill="#1D2445" d="M335.811,18.748c-5.514-2.711-7.795-9.403-5.085-14.917l3.59,1.764c-1.737,3.535-0.274,7.826,3.261,9.564    L335.811,18.748z"/>
	</g>
	<g>
		<path fill="#1D2445" d="M134.77,167.24l-2.913-2.741c1.308-1.39,1.997-3.206,1.938-5.114c-0.058-1.907-0.855-3.678-2.246-4.986    l2.741-2.913c2.168,2.04,3.412,4.802,3.503,7.778C137.884,162.239,136.811,165.071,134.77,167.24z"/>
	</g>
	<g>
		
			<rect x="240.324" y="210.825" transform="matrix(-0.7071 -0.7071 0.7071 -0.7071 264.4691 537.7693)" fill="#1D2445" width="6.573" height="6.573"/>
	</g>
	<g>
		
			<rect x="105.97" y="222.039" transform="matrix(-0.7071 -0.7071 0.7071 -0.7071 27.1835 461.9104)" fill="#1D2445" width="6.573" height="6.573"/>
	</g>
	<g>
		
			<rect x="308.389" y="127.94" transform="matrix(-0.7071 -0.7071 0.7071 -0.7071 439.2723 444.4049)" fill="#1D2445" width="6.573" height="6.573"/>
	</g>
	<g>
		
			<rect x="476.727" y="103.575" transform="matrix(-0.7071 -0.7071 0.7071 -0.7071 743.8719 521.8457)" fill="#1D2445" width="6.573" height="6.573"/>
	</g>
	<g>
		
			<rect x="96.257" y="86.769" transform="matrix(-0.7071 -0.7071 0.7071 -0.7071 106.252 224.1211)" fill="#1D2445" width="6.573" height="6.573"/>
	</g>
	<g>
		
			<rect x="40.231" y="160.511" transform="matrix(-0.7071 -0.7071 0.7071 -0.7071 -41.533 310.3914)" fill="#1D2445" width="6.573" height="6.573"/>
	</g>
	<g>
		
			<rect x="170.999" y="34.952" transform="matrix(-0.7071 -0.7071 0.7071 -0.7071 270.4845 188.5157)" fill="#1D2445" width="6.573" height="6.573"/>
	</g>
	<g>
		
			<rect x="269.336" y="101.482" transform="matrix(-0.7071 -0.7071 0.7071 -0.7071 391.3139 371.6249)" fill="#1D2445" width="6.573" height="6.573"/>
	</g>
	<g>
		<path fill="#1D2445" d="M168.489,217.865c-1.416-1.457-3.495-5.11-1.23-8.506c1.038-1.557-0.574-3.296-0.761-3.489l2.839-2.818    c1.439,1.439,3.553,5.073,1.25,8.526c-1.058,1.587,0.752,3.481,0.771,3.5L168.489,217.865z"/>
	</g>
	<g>
		<path fill="#1D2445" d="M430.618,138.829c-1.416-1.457-3.495-5.11-1.23-8.506c1.079-1.618-0.731-3.461-0.75-3.479l2.828-2.828    c1.439,1.439,3.552,5.073,1.25,8.526c-1.036,1.554,0.706,3.43,0.781,3.51L430.618,138.829z"/>
	</g>
	<g>
		<path fill="#1D2445" d="M371.59,101.811c-1.415-1.457-3.494-5.11-1.229-8.506c1.079-1.618-0.732-3.46-0.751-3.479l2.828-2.829    c1.439,1.439,3.554,5.073,1.251,8.527c-1.059,1.587,0.752,3.481,0.771,3.5L371.59,101.811z"/>
	</g>
	<g>
		<path fill="#1D2445" d="M339.582,166.342c-1.416-1.457-3.495-5.11-1.23-8.507c1.038-1.557-0.573-3.296-0.761-3.49l2.839-2.818    c1.439,1.439,3.552,5.073,1.25,8.526c-1.036,1.554,0.706,3.431,0.781,3.51L339.582,166.342z"/>
	</g>
	<g>
		<path fill="#1D2445" d="M267.723,27.13c-1.416-1.457-3.495-5.11-1.229-8.507c1.038-1.557-0.574-3.296-0.762-3.489l2.839-2.818    c1.439,1.439,3.552,5.073,1.251,8.526c-1.059,1.587,0.752,3.481,0.771,3.5L267.723,27.13z"/>
	</g>
	<g>
		<path fill="#1D2445" d="M130.478,125.822c-1.416-1.457-3.495-5.11-1.23-8.506c1.038-1.557-0.574-3.296-0.761-3.49l2.839-2.818    c1.439,1.439,3.553,5.073,1.25,8.527c-1.036,1.554,0.706,3.43,0.781,3.51L130.478,125.822z"/>
	</g>
	<g>
		<path fill="#1D2445" d="M95.461,170.844c-1.416-1.457-3.495-5.11-1.23-8.506c1.038-1.557-0.574-3.296-0.761-3.489l2.839-2.818    c1.439,1.439,3.553,5.073,1.25,8.526c-1.058,1.587,0.752,3.481,0.771,3.5L95.461,170.844z"/>
	</g>
	<g>
		<path fill="#1D2445" d="M277.546,184.85c-1.415-1.457-3.494-5.11-1.229-8.506c1.079-1.618-0.732-3.46-0.751-3.479l2.828-2.829    c1.439,1.439,3.554,5.073,1.251,8.527c-1.036,1.554,0.705,3.431,0.78,3.51L277.546,184.85z"/>
	</g>
	<g>
		<path fill="#1D2445" d="M246.532,94.808c-1.416-1.457-3.495-5.11-1.23-8.506c1.038-1.557-0.574-3.296-0.761-3.49l2.839-2.818    c1.439,1.439,3.553,5.073,1.25,8.526c-1.058,1.587,0.752,3.481,0.771,3.5L246.532,94.808z"/>
	</g>
	<g>
		<path fill="#1D2445" d="M69.449,128.323c-1.416-1.457-3.495-5.11-1.23-8.506c1.038-1.557-0.574-3.296-0.761-3.49l2.839-2.818    c1.439,1.439,3.553,5.073,1.25,8.527c-1.036,1.554,0.706,3.43,0.781,3.51L69.449,128.323z"/>
	</g>
</g>

            </g>
        </g>
    </g>
    
    <!-- ITEM 3 -->
    <g>
        <defs>
            <clipPath id="clip-path-id-viewbox-item-3">
                <rect x="0.0" y="0.0" width="158.552" height="410.845"/>
            </clipPath>
        </defs>
        <g transform="translate(478.0 227.0) rotate(0.0 157.0 406.0) scale(1.9804228265805541 1.9764144628752935)">
            <g clip-path="url(#clip-path-id-viewbox-item-3)" transform="translate(-0.0 -0.0)">
                
<g>
	<g>
		<g>
			<g>
				<g>
					<g>
						<g>
							<path fill="#FFFFFF" d="M44.938,234.939l11.121-29.776l-12.718-5.014l-5.11-1.962l-5.931,31.091         c-0.147,0.66-0.558,1.225-1.131,1.58c-0.72,0.303-1.404,0.699-2.032,1.187l-0.073,0.042l0.011,0.002         c-0.703,0.556-1.333,1.225-1.86,2.005l-0.373,0.552c-0.305,0.452-0.505,0.94-0.653,1.438l-0.057-0.005l-4.126,10.61         c-0.377,0.986,0.692,1.744,1.717,2.177c0.004,0.003,0.008,0.005,0.013,0.007c0.152,0.086,0.366,0.015,0.555-0.106         c-0.249,0.979,0.994,2.465,2.042,2.985c0.005,0.003,0.009,0.006,0.014,0.009c0.297,0.188,0.83-0.12,0.99-0.375l0.113-0.169         l-0.099,0.195c-0.417,0.971,0.967,2.502,2.065,3.047c0.004,0.003,0.009,0.006,0.014,0.009c0.297,0.188,0.83-0.12,0.99-0.375         l0.288-0.432l-0.643,1.302c-0.417,0.971,0.32,1.953,1.418,2.498c0.005,0.003,1.191,0.633,2.022-0.629l4.41-6.592         c-0.765,1.808-1.433,4.365-1.365,5.056c0.077,0.786,0.113,1.534,0.845,1.801c0.015,0.009,0.031,0.01,0.055,0.019         c0.126,0.039,0.246,0.062,0.374,0.07c0.513,0.03,1.017-0.207,1.308-0.648c0,0,1.815-3.321,2.919-5.452         c0.381-0.758,0.872-1.453,1.446-2.072c0.935-1.016,1.585-2.257,1.872-3.607l0.69-3.747c0.388-2.133,0.689-3.731-0.982-6.264         L44.938,234.939z"/>
						</g>
					</g>
				</g>
				<g>
					<g>
						<g>
							<path fill="#1D2445" d="M32.186,258.123c-0.499,0-0.908-0.19-1.001-0.26c-1.302-0.637-1.968-1.77-1.665-2.844         c-0.13-0.017-0.251-0.06-0.356-0.127c-0.943-0.468-2.035-1.554-2.316-2.607c-0.27,0.065-0.553,0.035-0.767-0.1         c-0.919-0.456-2.066-1.646-2.284-2.778c-0.109-0.012-0.212-0.044-0.306-0.097c-1.64-0.692-2.365-1.718-1.95-2.8l4.126-10.613         c0.025-0.065,0.063-0.123,0.11-0.171c0.173-0.523,0.388-0.97,0.652-1.361l0.372-0.551c0.522-0.775,1.157-1.466,1.886-2.054         c0.035-0.042,0.078-0.078,0.127-0.106c0.67-0.512,1.392-0.933,2.162-1.257c0.396-0.254,0.719-0.703,0.836-1.229l5.928-31.076         c0.027-0.146,0.118-0.271,0.248-0.343c0.129-0.072,0.282-0.083,0.423-0.03l5.11,1.962l12.721,5.016         c0.253,0.1,0.38,0.385,0.285,0.64l-11.062,29.616l0.071,0.228c1.729,2.653,1.417,4.368,1.023,6.536l-0.696,3.781         c-0.305,1.438-0.994,2.766-1.996,3.855c-0.555,0.597-1.014,1.255-1.367,1.958c-1.097,2.117-2.909,5.434-2.928,5.468         c-0.381,0.583-0.994,0.911-1.66,0.911c-0.01,0-0.105-0.003-0.114-0.003c-0.167-0.01-0.323-0.039-0.493-0.091         c-0.036-0.011-0.125-0.045-0.157-0.064c-0.913-0.325-1.007-1.291-1.082-2.068l-0.011-0.117         c-0.036-0.364,0.072-1.035,0.262-1.814l-2.394,3.579C33.373,257.947,32.676,258.123,32.186,258.123z M30.711,253.163         c0.086,0,0.172,0.022,0.25,0.067c0.229,0.132,0.314,0.418,0.198,0.654l-0.643,1.303c-0.299,0.698,0.381,1.426,1.192,1.828         c0.013,0.007,0.216,0.108,0.478,0.108c0.358,0,0.653-0.185,0.903-0.564l4.412-6.595c0.145-0.215,0.427-0.284,0.653-0.162         c0.228,0.123,0.323,0.397,0.223,0.635c-0.793,1.874-1.38,4.288-1.327,4.812l0.011,0.119c0.077,0.793,0.145,1.129,0.508,1.262         c0.123,0.04,0.202,0.055,0.286,0.06c0.429,0.014,0.688-0.157,0.861-0.424l0,0c-0.002,0,1.805-3.306,2.894-5.408         c0.394-0.782,0.906-1.518,1.523-2.182c0.879-0.956,1.484-2.122,1.749-3.37l0.688-3.734c0.391-2.148,0.646-3.546-0.907-5.898         c-0.026-0.039-0.047-0.082-0.061-0.127l-0.143-0.458c-0.033-0.106-0.029-0.219,0.009-0.323l10.949-29.316l-16.808-6.58         l-5.818,30.504c-0.178,0.794-0.671,1.485-1.358,1.911c-0.759,0.326-1.404,0.703-1.989,1.156         c-0.006,0.005-0.021,0.014-0.037,0.024c-0.007,0.006-0.014,0.012-0.021,0.018c-0.682,0.538-1.272,1.175-1.757,1.892         l-0.372,0.552c-0.246,0.364-0.433,0.777-0.589,1.301c-0.027,0.092-0.079,0.17-0.146,0.23l-4.049,10.413         c-0.282,0.736,1.025,1.358,1.441,1.534c0.022-0.009,0.061-0.026,0.109-0.058c0.172-0.11,0.395-0.104,0.562,0.017         c0.166,0.12,0.242,0.33,0.191,0.529c-0.159,0.622,0.806,1.93,1.78,2.414c0.11,0.02,0.309-0.109,0.357-0.184l0.122-0.182         c0.146-0.219,0.439-0.286,0.668-0.153c0.228,0.134,0.313,0.421,0.193,0.657l-0.099,0.195         c-0.242,0.566,0.867,1.89,1.841,2.374c0.106,0.015,0.309-0.109,0.358-0.184l0.297-0.444         C30.392,253.241,30.55,253.163,30.711,253.163z"/>
						</g>
					</g>
				</g>
			</g>
		</g>
		<g>
			<g>
				<g>
					<g>
						<g>
							<path fill="#FFFFFF" d="M156.784,11.146c-0.005-0.002-0.01-0.003-0.015-0.005c-0.325-0.098-0.67,0.08-0.771,0.399         l-0.789,1.972l0.942-7.014c0.061-1.164-0.597-2.155-1.522-2.433c-0.005-0.001-0.01-0.002-0.015-0.003         c-0.335-0.061-0.657,0.155-0.719,0.483l-0.792,2.928l-0.221-4.839c-0.147-1.157-0.972-2.019-1.932-2.135         c-0.005,0-0.01,0-0.016,0c-0.341-0.003-0.619,0.265-0.622,0.598l-0.31,3.626l-0.018-0.389         c-0.147-1.157-0.972-2.019-1.932-2.135c-0.005,0-0.01,0-0.016,0c-0.34-0.003-0.619,0.265-0.622,0.598l-1.402,16.394         l-1.504,1.89c-0.845,1.069-1.361,2.358-1.481,3.704l-0.743,8.53l-0.064,0.77l-9.757,12.425l0.43-0.094l-2.43,3.094         l-2.814,3.593l9.293,11.385l9.98-10.952l6.224-14.275c1.201-1.641,1.979-3.605,2.176-5.747l-0.612-6.856l0.688-2.693         l0.011-0.017l0.004-0.042l2.6-10.173C158.208,12.583,157.67,11.525,156.784,11.146z"/>
						</g>
					</g>
				</g>
				<g>
					<g>
						<g>
							<path fill="#1D2445" d="M136.94,64.988c-0.005,0-0.009,0-0.014,0c-0.146-0.004-0.281-0.071-0.374-0.184l-9.293-11.385         c-0.147-0.181-0.15-0.44-0.006-0.625l4.758-6.067c-0.082-0.17-0.062-0.375,0.057-0.526l9.665-12.307l0.795-9.152         c0.129-1.448,0.678-2.821,1.587-3.971l1.411-1.772l1.39-16.243c0.003-0.565,0.504-1.056,1.114-1.056         c0.655,0.076,1.228,0.381,1.656,0.84l0.127-1.484C149.816,0.491,150.317,0,150.928,0c1.303,0.151,2.276,1.207,2.449,2.573         l0.077,1.688c0.172-0.466,0.696-0.792,1.249-0.689c1.247,0.37,2.02,1.578,1.946,2.954l-0.563,4.204         c0.245-0.118,0.55-0.15,0.828-0.066c1.197,0.508,1.823,1.796,1.591,3.155l-2.608,10.212         c-0.005,0.054-0.016,0.093-0.034,0.132l-0.647,2.536l0.604,6.771c-0.197,2.236-0.97,4.293-2.237,6.042l-6.203,14.225         c-0.021,0.05-0.052,0.096-0.089,0.137l-9.979,10.952C137.215,64.929,137.081,64.988,136.94,64.988z M128.288,53.097         l8.673,10.626l9.534-10.463l6.191-14.199c0.015-0.034,0.033-0.066,0.055-0.095c1.18-1.612,1.899-3.513,2.081-5.498         l-0.611-6.766c-0.005-0.056,0-0.113,0.014-0.168l0.688-2.693c0.003-0.013,0.007-0.026,0.012-0.039         c0.001-0.008,0.003-0.014,0.004-0.019l2.6-10.173c0.144-0.848-0.248-1.707-0.94-2.004c-0.042,0.009-0.096,0.033-0.112,0.085         l-0.802,2.007c-0.094,0.234-0.35,0.362-0.591,0.298c-0.244-0.064-0.402-0.3-0.368-0.55l0.941-7.014         c0.043-0.86-0.447-1.67-1.17-1.887c-0.041,0.008-0.09,0.045-0.1,0.094l-0.802,2.966c-0.064,0.237-0.28,0.393-0.537,0.366         c-0.245-0.027-0.434-0.228-0.444-0.474l-0.221-4.839c-0.11-0.855-0.739-1.571-1.492-1.661         c-0.025,0.003-0.078,0.05-0.078,0.106L150.5,4.767c-0.022,0.259-0.239,0.458-0.498,0.458c-0.003,0-0.006,0-0.01,0         c-0.263-0.005-0.478-0.213-0.489-0.476l-0.019-0.389c-0.111-0.856-0.74-1.572-1.492-1.662         c-0.025,0.003-0.078,0.049-0.078,0.106l-1.404,16.432c-0.008,0.098-0.046,0.192-0.106,0.269l-1.504,1.889         c-0.787,0.995-1.264,2.184-1.375,3.437l-0.808,9.297c-0.008,0.097-0.045,0.19-0.104,0.267l-9.271,11.805         c0.082,0.17,0.062,0.375-0.057,0.526L128.288,53.097z"/>
						</g>
					</g>
				</g>
			</g>
		</g>
		<g>
			<g>
				<g>
					<path fill="#1D2445" d="M58.389,78.648c-2.683-5.204,1.923-12.919,10.287-17.23c7.135-3.678,14.701-3.692,18.436-0.385       c0.967,0.856,0.735,2.431-0.413,3.022L58.389,78.648z"/>
				</g>
			</g>
			<g>
				<g>
					<path fill="#1D2445" d="M55.741,70.698c-2.284-4.431,1.637-10.998,8.758-14.669c6.075-3.131,12.516-3.143,15.695-0.328       c0.823,0.729,0.626,2.069-0.352,2.573L55.741,70.698z"/>
				</g>
			</g>
			<g>
				<g>
					<path fill="#C78982" d="M62.798,65.025l-0.451,0.218c-1.907,0.923-2.704,3.217-1.781,5.124l5.805,11.99l15.988-7.74       l-1.626-3.358C77.502,64.585,69.472,61.794,62.798,65.025z"/>
				</g>
			</g>
			<g>
				<g>
					
						<rect x="73.791" y="74.04" transform="matrix(-0.9001 0.4358 -0.4358 -0.9001 186.1327 119.5482)" fill="#C78982" width="11.135" height="14.155"/>
				</g>
			</g>
			<g>
				<g>
					<g>
						<g>
							<path fill="#FFFFFF" d="M90.723,90.807l-0.913-1.746l0.082-0.042l-3.075-5.965l1.662-0.908         c1.425-0.778,1.24-2.88-0.298-3.399l-4.337-1.461l-2.51-4.869c-4.51-8.749-15.258-12.185-24.006-7.675l-4.685,2.415         c-5.119,2.639-7.13,8.928-4.491,14.047l11.945,23.174l0.021-0.011l-2.204,11.439l14.918,22.128         c0.557,0.826,1.835,0.565,2.024-0.413l7.769-40.319l-0.6-0.116l5.775-0.808C90.379,95.917,91.857,93.149,90.723,90.807z"/>
						</g>
					</g>
				</g>
				<g>
					<g>
						<g>
							<path fill="#1D2445" d="M73.753,138.927L73.753,138.927c-0.542,0-1.028-0.26-1.334-0.714l-14.92-22.129         c-0.073-0.11-0.101-0.244-0.076-0.374l2.165-11.231l-11.88-23.047c-1.338-2.594-1.584-5.555-0.695-8.335         s2.808-5.048,5.401-6.385l4.685-2.415c2.627-1.354,5.446-2.04,8.38-2.04c6.896,0,13.143,3.805,16.3,9.931l2.417,4.689         l4.146,1.397c0.903,0.304,1.516,1.083,1.6,2.032c0.083,0.949-0.385,1.823-1.222,2.28l-1.233,0.674l2.852,5.531         c0.049,0.095,0.064,0.199,0.051,0.297l0.778,1.489c0.617,1.276,0.589,2.709-0.071,3.946c-0.66,1.237-1.835,2.057-3.224,2.251         l-4.782,0.669l-7.741,40.173C75.198,138.387,74.543,138.927,73.753,138.927z M58.444,115.697l14.804,21.957         c0.16,0.238,0.385,0.273,0.505,0.273l0,0c0.257,0,0.546-0.155,0.612-0.501l7.675-39.828l-0.108-0.021         c-0.24-0.046-0.411-0.26-0.405-0.504c0.007-0.244,0.188-0.448,0.431-0.482l5.775-0.808c1.068-0.149,1.972-0.781,2.48-1.732         c0.508-0.952,0.529-2.054,0.06-3.025l-0.905-1.732c-0.049-0.093-0.066-0.199-0.052-0.302l-2.942-5.708         c-0.124-0.241-0.033-0.538,0.204-0.668l1.662-0.908c0.577-0.315,0.742-0.886,0.705-1.315         c-0.049-0.555-0.394-0.993-0.922-1.171l-4.338-1.461c-0.124-0.042-0.226-0.129-0.285-0.245l-2.51-4.869         c-2.985-5.791-8.891-9.389-15.411-9.389c-2.773,0-5.438,0.649-7.921,1.929L52.873,67.6         c-4.866,2.508-6.784,8.508-4.276,13.374l11.893,23.072c0.101,0.113,0.15,0.263,0.121,0.415L58.444,115.697z"/>
						</g>
					</g>
				</g>
			</g>
			<g>
				<g>
					<path fill="#1D2445" d="M71.843,84.729l1.81,3.51c1.668,3.237,5.103,5.17,8.735,4.918h0v0       c-1.309-2.539-0.311-5.658,2.227-6.967l3.017-1.555l3.299,6.4c1.203,2.333-0.321,5.145-2.932,5.412l-10.348,1.058       c-1.524,0.156-2.988-0.637-3.689-1.999l-6.233-12.092l0,0C69.229,82.641,71.07,83.23,71.843,84.729z"/>
				</g>
			</g>
			<g>
				<g>
					<path fill="#FFFFFF" d="M86.868,91.66l2.551-0.649c0.678-0.173,1.02-0.931,0.699-1.554l-1.421-2.756l-2.185,1.126       c-1.17,0.603-1.63,2.041-1.027,3.211h0C85.746,91.542,86.319,91.8,86.868,91.66z"/>
				</g>
				<g>
					<path fill="#1D2445" d="M86.568,92.198c-0.646,0-1.23-0.357-1.526-0.93c-0.354-0.685-0.418-1.466-0.184-2.2       c0.234-0.734,0.74-1.332,1.425-1.685l2.186-1.126c0.118-0.06,0.255-0.073,0.382-0.032c0.126,0.041,0.231,0.129,0.292,0.247       l1.42,2.756c0.224,0.432,0.237,0.935,0.037,1.379c-0.199,0.444-0.584,0.768-1.056,0.888l-2.553,0.649       C86.853,92.18,86.711,92.198,86.568,92.198z M88.482,87.375l-1.74,0.897c-0.447,0.23-0.778,0.621-0.932,1.101       s-0.11,0.99,0.12,1.437c0.15,0.292,0.486,0.449,0.814,0.366l2.552-0.649c0.174-0.044,0.317-0.165,0.391-0.329       c0.074-0.164,0.069-0.351-0.014-0.51L88.482,87.375z"/>
				</g>
			</g>
			<g>
				<g>
					<path fill="#1D2445" d="M61.538,100.767l9.044-0.523L54.523,69.089c-0.942-1.828-3.189-2.547-5.017-1.604l-1.489,0.768       c-7.094,3.657-9.266,12.773-4.583,19.236l5.179,7.147C51.595,98.749,56.466,101.06,61.538,100.767z"/>
				</g>
			</g>
			<g>
				<g>
					<polygon fill="#1D2445" points="63.363,84.247 78.04,76.682 77.119,74.083 62.112,81.819      "/>
				</g>
			</g>
			<g>
				<g>
					<path fill="#1D2445" d="M48.173,73.461l11.586-5.972l12.362,23.983c1.885,3.657,0.449,8.149-3.208,10.034l-4.965,2.559       L48.173,73.461z"/>
				</g>
			</g>
			<g>
				<g>
					<path fill="#1D2445" d="M54.658,67.373L68.3,60.341l4.01,7.779c1.885,3.657,0.449,8.149-3.208,10.034l-7.021,3.619       L54.658,67.373z"/>
				</g>
			</g>
			<g>
				<g>
					<path fill="#1D2445" d="M81.012,73.216c0.012,0,0.074,0.003,0.105,0.064l2.479,4.808c0.015,0.029,0.017,0.059,0.008,0.089       c-0.01,0.031-0.03,0.054-0.058,0.069l-3.21,1.654c-0.017,0.009-0.034,0.013-0.052,0.013c-0.012,0-0.074-0.003-0.105-0.064       l-2.479-4.808c-0.03-0.057-0.007-0.129,0.051-0.158l3.209-1.654C80.976,73.22,80.993,73.216,81.012,73.216 M81.012,72.216       c-0.172,0-0.347,0.04-0.511,0.124l-3.209,1.654c-0.549,0.283-0.764,0.957-0.481,1.505l2.479,4.808       c0.198,0.385,0.589,0.606,0.994,0.606c0.172,0,0.347-0.04,0.511-0.125l3.209-1.654c0.549-0.283,0.764-0.957,0.481-1.505       l-2.479-4.808C81.808,72.437,81.417,72.216,81.012,72.216L81.012,72.216z"/>
				</g>
			</g>
			<g>
				<g>
					<path fill="#1D2445" d="M58.511,88.641c-2.683-5.204-11.638-5.928-20.002-1.617c-7.135,3.678-11.536,9.833-11.009,14.793       c0.136,1.284,1.554,2.009,2.702,1.417L58.511,88.641z"/>
				</g>
			</g>
			<g>
				<g>
					<path fill="#1D2445" d="M67.552,92.361c-2.494-4.839-10.82-5.512-18.597-1.503c-6.634,3.42-10.725,9.142-10.235,13.753       c0.127,1.194,1.444,1.867,2.512,1.317L67.552,92.361z"/>
				</g>
			</g>
			<g>
				<g>
					<path fill="#1D2445" d="M65.949,98.215c4.036-2.081,2.473-8.155-2.067-8.074c-2.472,0.044-5.154,0.707-7.729,2.034       c-5.767,2.973-9.132,8.32-8.447,12.831c0.177,1.168,1.395,1.893,2.323,1.415L65.949,98.215z"/>
				</g>
			</g>
			<g>
				<g>
					<path fill="#1D2445" d="M70,100.979c2.974-1.533,1.822-6.008-1.523-5.948c-1.821,0.033-3.797,0.521-5.694,1.499       c-4.249,2.19-6.727,6.13-6.223,9.453c0.131,0.861,1.027,1.395,1.711,1.042L70,100.979z"/>
				</g>
			</g>
			<g>
				<g>
					<path fill="#1D2445" d="M58.047,77.986c-2.683-5.204-11.638-5.928-20.002-1.617c-7.135,3.678-11.536,9.833-11.009,14.793       c0.136,1.284,1.554,2.009,2.702,1.417L58.047,77.986z"/>
				</g>
			</g>
			<g>
				<g>
					<path fill="#1D2445" d="M67.716,65.041c-2.683-5.204-11.638-5.928-20.002-1.617c-7.135,3.678-11.536,9.833-11.009,14.793       c0.136,1.284,1.554,2.009,2.702,1.417L67.716,65.041z"/>
				</g>
			</g>
		</g>
		<g>
			<g>
				<path fill="#1D2445" d="M43.434,369.581l-9.3,10.848l-5.078,5.925l-1.503,1.753l-4.86,5.667l-2.396,2.796l-3.641,4.252      l-0.21,0.243l-9.504-16.299l8.66-13.539l19.835-42.902c1.534-3.317,3.661-6.327,6.276-8.879l27.048-26.399l27.374,3.172      l-5.243,21.173C89.918,319.479,43.434,369.581,43.434,369.581z"/>
			</g>
		</g>
		<g>
			<g>
				<path fill="#1D2445" d="M74.52,183.025l-6.111,24.47c-0.398,1.594-0.598,3.231-0.596,4.875l0.143,99.005l6.091,1.94      c12.511,3.985,25.61-4.198,27.515-17.19l13.067-89.134L74.52,183.025z"/>
			</g>
			<g>
				<path fill="#1D2445" d="M80.525,314.829c-0.001,0-0.001,0-0.002,0c-2.237,0-4.468-0.349-6.628-1.038l-6.438-2.051l-0.001-0.365      l-0.143-99.005c-0.003-1.682,0.202-3.363,0.61-4.997l6.273-25.123l40.975,24.482l-0.048,0.331l-13.067,89.135      C100.499,306.819,91.243,314.829,80.525,314.829z M68.455,311.009l5.743,1.83c2.063,0.657,4.19,0.99,6.325,0.99      c10.227,0.001,19.058-7.641,20.543-17.776l13.02-88.804L74.842,183.8l-5.947,23.816c-0.389,1.553-0.584,3.153-0.581,4.752      L68.455,311.009z"/>
			</g>
		</g>
		<g>
			<g>
				<path fill="#29ABE2" d="M27.267,404.868v0.004C27.239,404.872,27.243,404.868,27.267,404.868z"/>
			</g>
		</g>
		<g>
			<g>
				<g>
					<g>
						<g>
							<path fill="#FFFFFF" d="M51.946,398.085c-0.599-0.689-1.442-1.172-2.405-1.311l-8.513-1.217         c-2.704-0.386-5.262-1.356-7.506-2.801c-0.382-0.246-0.742-0.525-1.105-0.799l-0.678-10.033l-0.611-0.12         c-0.936-0.184-1.858,0.367-2.146,1.273l-0.82,2.599l-4.828-1.749c-3.27-1.18-5.581-4.127-5.948-7.584l-0.569-5.341         c-0.097-0.933-1.236-1.341-1.906-0.682l-6.465,6.371l-4.551,4.487l-0.393,0.386l-1.831,3.427l11.521,10.813l2.016,1.892         l1.018,4.097l4.581,1.157l5.946,5.581l6.72-0.934l-0.099-1.472l1.07,0.27l12.618,0.161h0.03l0.195-0.127l2.419-1.573         l1.416-0.921c1.112-0.723,1.783-1.959,1.783-3.285C52.905,399.676,52.545,398.777,51.946,398.085z"/>
						</g>
					</g>
				</g>
				<g>
					<g>
						<g>
							<path fill="#1D2445" d="M26.754,409.031c-0.126,0-0.249-0.048-0.342-0.135l-5.853-5.493l-4.455-1.125         c-0.18-0.045-0.318-0.185-0.363-0.364l-0.982-3.954L1.33,385.355c-0.165-0.155-0.206-0.401-0.1-0.6l1.832-3.427         c0.024-0.045,0.055-0.085,0.091-0.121l11.408-11.243c0.306-0.302,0.708-0.467,1.132-0.467c0.838,0,1.535,0.625,1.622,1.453         l0.569,5.34c0.345,3.246,2.551,6.06,5.62,7.167l4.338,1.572l0.664-2.102c0.361-1.137,1.514-1.85,2.719-1.614l0.611,0.12         c0.222,0.044,0.387,0.231,0.402,0.457l0.662,9.806c0.292,0.221,0.584,0.441,0.893,0.64c2.197,1.416,4.723,2.359,7.305,2.727         l8.513,1.218c1.052,0.151,2.015,0.676,2.712,1.478c0.697,0.807,1.081,1.834,1.081,2.894c0,1.501-0.751,2.886-2.01,3.704         l-4.03,2.622c-0.081,0.053-0.176,0.081-0.272,0.081l-12.654-0.161c-0.039,0-0.078-0.006-0.115-0.015l-0.402-0.102         l0.053,0.785c0.018,0.262-0.17,0.492-0.43,0.529l-6.72,0.935C26.8,409.03,26.776,409.031,26.754,409.031z M16.64,401.381         l4.29,1.084c0.083,0.021,0.158,0.062,0.22,0.12l5.772,5.418l6.021-0.838l-0.067-1.007c-0.011-0.16,0.056-0.315,0.179-0.417         s0.289-0.139,0.442-0.101l1.013,0.256l12.436,0.159l3.904-2.54c0.974-0.633,1.555-1.704,1.555-2.865         c0-0.819-0.297-1.614-0.836-2.239c-0.539-0.619-1.285-1.026-2.099-1.143l-8.512-1.217c-2.724-0.388-5.389-1.383-7.705-2.876         c-0.343-0.221-0.668-0.466-0.993-0.712l-0.143-0.108c-0.116-0.087-0.188-0.221-0.198-0.365l-0.651-9.65l-0.235-0.046         c-0.684-0.137-1.362,0.276-1.572,0.934l-0.82,2.598c-0.041,0.13-0.133,0.238-0.255,0.298         c-0.122,0.061-0.264,0.068-0.392,0.022l-4.828-1.749c-3.427-1.236-5.89-4.377-6.274-8.002l-0.569-5.341         c-0.038-0.367-0.345-0.558-0.628-0.558c-0.113,0-0.279,0.031-0.431,0.18l-11.354,11.19l-1.615,3.021l13.257,12.443         c0.07,0.066,0.12,0.151,0.144,0.244L16.64,401.381z"/>
						</g>
					</g>
				</g>
			</g>
			<g>
				<g>
					<path fill="#1D2445" d="M23.922,404.856l-0.917,4.267c-0.043,0.198,0.108,0.385,0.311,0.385h17.977       c0.648,0,1.284-0.167,1.848-0.485l4.38-2.467l0.225-0.127l2.794-1.573H23.922z"/>
				</g>
			</g>
			<g>
				<g>
					<path fill="#1D2445" d="M3.642,391.586l11.004,10.064l8.416,7.7c1.551,0.045,6.32,0.086,7.058,0.108l-12.152-11.075       c-0.36-0.33-0.577-0.787-0.607-1.273c-0.071-1.221-0.378-2.408-0.895-3.494c-0.517-1.086-1.24-2.075-2.146-2.903l-3.094-2.831       l-7.33-6.704l-0.184-0.169c-0.607-0.554-1.588-0.288-1.832,0.498l-0.517,1.67C0.433,386.185,1.32,389.458,3.642,391.586z"/>
				</g>
			</g>
		</g>
		<g>
			<g>
				<path fill="#1D2445" d="M56.273,328.12l-6.416,35.098l-2.187,11.957l-1.196,6.531l-0.353,1.933l-1.141,6.247l-0.564,3.081      l-0.86,4.686l-0.048,0.268c0,0,3.228,0.307,6.97,0.664c1.649,0.16,3.398,0.326,5.009,0.487c0.913,0.086,1.776,0.173,2.56,0.25      c2.01,0.196,3.46,0.347,3.643,0.375l0.211-0.573l0.599-1.624l4.721-12.77l5.293-14.324l16.351-41.912l10.708-23.697      L77.02,283.261L58.571,321.68C57.439,323.815,56.663,325.991,56.273,328.12z"/>
			</g>
		</g>
		<g>
			<g>
				<path fill="#1D2445" d="M123.446,195.825l-0.098,23.059c-0.008,1.795-0.257,3.581-0.741,5.309l-21.741,77.627      c-1.611,6.121-8.31,9.353-14.102,6.801c-7.46-3.286-15.948-7.094-15.902-7.387l11.034-106.89L123.446,195.825z"/>
			</g>
			<g>
				<path fill="#1D2445" d="M90.908,310.001c-1.496,0-2.958-0.31-4.345-0.921c-16.309-7.184-16.277-7.385-16.195-7.92      l11.079-107.331l42.5,1.514l-0.099,23.544c-0.008,1.841-0.264,3.671-0.76,5.442l-21.74,77.627      C100.102,306.689,95.809,310.001,90.908,310.001z M71.388,301.02c0.661,0.398,3.572,1.856,15.578,7.145      c1.26,0.554,2.586,0.836,3.942,0.836c4.446,0,8.343-3.005,9.476-7.307l21.742-77.635c0.472-1.684,0.715-3.426,0.723-5.177      l0.095-22.575l-40.598-1.446L71.388,301.02z"/>
			</g>
		</g>
		<g>
			<g>
				<path fill="#FFFFFF" d="M87.331,407.359l4.399-2.62c1.213-0.723,2.057-1.958,2.244-3.284v0c0.274-1.949-0.927-3.602-2.818-3.878      l-8.342-1.216c-5.272-0.769-9.621-3.836-11.919-8.407l-2.751-5.472l-3.66,2.059c-0.882,0.496-1.337,1.523-1.057,2.387      l0.801,2.472l-5.018,1.97c-3.399,1.334-7.004,0.72-9.286-1.583l-3.524-3.555c-0.617-0.623-1.795-0.156-1.976,0.784      l-3.079,15.996l0.434,3.765L87.331,407.359z"/>
			</g>
			<g>
				<path fill="#1D2445" d="M87.331,407.859c-0.002,0-0.004,0-0.007,0l-45.554-0.582c-0.251-0.003-0.461-0.193-0.49-0.443      l-0.434-3.765c-0.006-0.051-0.004-0.102,0.006-0.152l3.079-15.996c0.162-0.84,0.922-1.473,1.77-1.473      c0.403,0,0.777,0.153,1.053,0.431l3.524,3.556c2.104,2.125,5.581,2.712,8.748,1.47l4.58-1.798l-0.655-2.025      c-0.352-1.086,0.202-2.365,1.288-2.977l3.659-2.06c0.118-0.067,0.263-0.082,0.391-0.042c0.131,0.04,0.24,0.132,0.301,0.254      l2.751,5.472c2.226,4.426,6.434,7.391,11.546,8.136l8.342,1.216c2.159,0.315,3.553,2.224,3.241,4.442      c-0.208,1.479-1.137,2.842-2.483,3.644l-4.399,2.621C87.51,407.834,87.421,407.859,87.331,407.859z M42.224,406.283      l44.973,0.574l4.278-2.548c1.089-0.649,1.839-1.742,2.005-2.924c0.236-1.683-0.771-3.076-2.396-3.313l-8.342-1.216      c-5.439-0.793-9.921-3.956-12.294-8.677l-2.516-5.004l-3.203,1.803c-0.668,0.376-1.031,1.165-0.827,1.797l0.801,2.472      c0.081,0.251-0.047,0.523-0.293,0.619l-5.019,1.97c-1.234,0.485-2.502,0.731-3.767,0.731c-2.355,0-4.506-0.862-6.058-2.427      l-3.523-3.555c-0.294-0.296-1.018-0.061-1.13,0.526l-3.064,15.92L42.224,406.283z"/>
			</g>
		</g>
		<g>
			<g>
				<g>
					<g>
						<path fill="#FFFFFF" d="M138.091,39.534l-21.497,25.903l-6.301,9.523L88.451,91.685l-0.068-0.206l-7.478,5.984l-5.217,3.995        c-0.4,0.317-0.757,0.667-1.076,1.041l-22.849,18.287c-6.395,4.845-9.245,13.026-7.315,20.773l-3.852,45.63l-3.759,9.5        c-0.39,0.986-0.673,2.012-0.842,3.059l-3.713,27.94l14.131,4.069l9.716-22.047l5.704-20.477        c0.068-0.244,0.112-0.488,0.145-0.732c0.351-0.502,0.59-1.091,0.646-1.745l1.224-14.495l9.736,12.574l0.008,0.712        l-4.242,18.52l54.036,10.949l0.059-18.476c-0.124-10.405-11.499-66.903-16.539-91.454l14.42-11.002        c2.236-0.913,4.231-2.483,5.664-4.649l14.719-22.244l8.574-19.436L138.091,39.534z"/>
					</g>
				</g>
			</g>
			<g>
				<g>
					<g>
						<path fill="#1D2445" d="M46.414,232.258c-0.046,0-0.093-0.006-0.139-0.02l-14.131-4.069c-0.237-0.069-0.39-0.301-0.357-0.546        l3.713-27.94c0.179-1.099,0.472-2.164,0.873-3.177l3.732-9.432l3.839-45.474c-1.949-7.952,0.996-16.27,7.518-21.211        l22.839-18.279c0.28-0.343,0.665-0.715,1.077-1.042l5.225-4.001l7.469-5.978c0.128-0.102,0.297-0.135,0.453-0.089        l21.396-16.385l6.256-9.453l21.529-25.947c0.165-0.198,0.452-0.239,0.664-0.095l12.192,8.221        c0.201,0.135,0.275,0.395,0.178,0.616l-8.574,19.436l-14.759,22.318c-1.43,2.159-3.444,3.821-5.83,4.81l-14.118,10.772        c4.969,24.21,16.362,80.808,16.486,91.241l-0.06,18.483c0,0.15-0.068,0.291-0.185,0.386c-0.115,0.095-0.267,0.133-0.415,0.102        l-54.035-10.949c-0.132-0.027-0.247-0.106-0.32-0.219s-0.098-0.251-0.067-0.383l4.229-18.462l-0.006-0.485l-8.847-11.427        l-1.116,13.216c-0.056,0.669-0.279,1.303-0.665,1.888c-0.034,0.227-0.079,0.455-0.143,0.682l-5.704,20.477l-9.739,22.115        C46.79,232.145,46.608,232.258,46.414,232.258z M32.836,227.327l13.297,3.829l9.539-21.647l5.681-20.41        c0.063-0.222,0.102-0.444,0.132-0.666c0.011-0.079,0.04-0.154,0.085-0.219c0.325-0.466,0.513-0.97,0.558-1.5l1.224-14.495        c0.018-0.205,0.159-0.379,0.356-0.438c0.198-0.06,0.41,0.011,0.537,0.173l9.735,12.574c0.066,0.086,0.104,0.191,0.104,0.3        l0.009,0.712c0,0.04-0.004,0.079-0.013,0.118l-4.128,18.021l52.936,10.726l0.058-17.866        c-0.124-10.383-11.601-67.344-16.529-91.351c-0.038-0.188,0.034-0.382,0.187-0.498l14.42-11.002        c0.035-0.027,0.074-0.049,0.114-0.065c2.227-0.909,4.106-2.452,5.437-4.462l14.719-22.244l8.365-18.979l-11.471-7.735        l-21.208,25.555l-6.27,9.479c-0.03,0.046-0.069,0.087-0.113,0.121L88.755,92.082c-0.123,0.094-0.282,0.125-0.433,0.086        l-7.104,5.685l-5.227,4.002c-0.354,0.281-0.692,0.609-0.998,0.968l-22.918,18.353c-6.234,4.724-9.033,12.674-7.142,20.261        c0.013,0.053,0.018,0.108,0.013,0.163l-3.852,45.63c-0.004,0.049-0.016,0.097-0.033,0.142l-3.76,9.5        c-0.375,0.947-0.648,1.941-0.813,2.955L32.836,227.327z"/>
					</g>
				</g>
			</g>
		</g>
		<g>
			<g>
				<path fill="#1D2445" d="M39.963,404.064l0.523,1.583c0.942,2.848,3.552,4.665,6.7,4.665h34.473c0.643,0,1.299-0.166,1.905-0.481      l6.539-3.41c0.374-0.195,0.235-0.76-0.186-0.76H62.999c-0.488,0-0.93-0.191-1.232-0.531h0c-1.516-1.71-3.736-2.668-6.188-2.668      H41.205C40.381,402.461,39.717,403.319,39.963,404.064z"/>
			</g>
		</g>
	</g>
	<g>
		<path fill="#1D2445" d="M93.457,119.824c-0.094,0-0.188-0.026-0.273-0.081c-0.231-0.151-0.296-0.461-0.146-0.692l4.968-7.616    c0.03-0.046,0.067-0.086,0.11-0.12l9.785-7.688c0.214-0.17,0.53-0.134,0.702,0.084c0.17,0.217,0.133,0.531-0.085,0.702    l-9.72,7.638l-4.923,7.547C93.78,119.744,93.62,119.824,93.457,119.824z"/>
	</g>
	<g>
		<path fill="#1D2445" d="M66.295,176.216c-0.158,0-0.314-0.075-0.411-0.216l-10.479-15.166c-0.157-0.227-0.101-0.539,0.127-0.696    c0.226-0.156,0.538-0.101,0.695,0.127l10.479,15.166c0.157,0.227,0.101,0.539-0.127,0.696    C66.492,176.187,66.393,176.216,66.295,176.216z"/>
	</g>
	<g>
		<polyline fill="#FFFFFF" points="155.501,12.608 151.503,23.914 150.808,24.509   "/>
		<path fill="#1D2445" d="M150.809,25.009c-0.141,0-0.281-0.059-0.38-0.175c-0.18-0.21-0.155-0.526,0.055-0.705l0.593-0.507    l3.953-11.18c0.094-0.26,0.379-0.396,0.639-0.305c0.26,0.092,0.396,0.378,0.305,0.638l-3.998,11.306    c-0.029,0.083-0.08,0.156-0.146,0.213l-0.694,0.594C151.039,24.969,150.924,25.009,150.809,25.009z"/>
	</g>
	<g>
		<path fill="#1D2445" d="M150.4,21.932c-0.031,0-0.062-0.003-0.093-0.009c-0.271-0.051-0.45-0.312-0.399-0.583l2.896-15.442    c0.051-0.272,0.315-0.449,0.583-0.399c0.271,0.051,0.45,0.312,0.399,0.583l-2.896,15.442    C150.846,21.765,150.636,21.932,150.4,21.932z"/>
	</g>
	<g>
		<path fill="#1D2445" d="M147.781,20.829c-0.025,0-0.05-0.002-0.075-0.006c-0.273-0.041-0.461-0.296-0.42-0.569l2.344-15.58    c0.041-0.274,0.295-0.463,0.568-0.42c0.273,0.041,0.461,0.296,0.42,0.569l-2.344,15.58    C148.237,20.652,148.024,20.829,147.781,20.829z"/>
	</g>
	<g>
		<path fill="#FFFFFF" d="M22.587,248.492L22.587,248.492c-0.904-0.451-1.272-1.549-0.821-2.453l3.05-6.121    c0.451-0.904,1.549-1.272,2.453-0.821l0,0c0.904,0.451,1.272,1.549,0.821,2.453l-3.05,6.121    C24.589,248.575,23.491,248.943,22.587,248.492z"/>
		<path fill="#1D2445" d="M23.401,249.184c-0.362,0-0.711-0.082-1.037-0.245c-1.149-0.572-1.619-1.973-1.046-3.123l3.051-6.121    c0.558-1.12,1.995-1.608,3.122-1.045c1.149,0.572,1.619,1.973,1.046,3.123l-3.05,6.121    C25.09,248.69,24.291,249.184,23.401,249.184z M26.454,239.405c-0.508,0-0.964,0.282-1.19,0.736l-3.051,6.121    c-0.326,0.656-0.059,1.455,0.597,1.782c0.646,0.323,1.465,0.042,1.783-0.597l3.05-6.12c0.326-0.656,0.059-1.456-0.597-1.782    C26.859,239.452,26.66,239.405,26.454,239.405z"/>
	</g>
	<g>
		<path fill="#1D2445" d="M37.655,251.214c-0.082,0-0.165-0.02-0.242-0.063c-0.241-0.134-0.329-0.438-0.195-0.68l3.106-5.611    c0.135-0.242,0.437-0.329,0.68-0.195c0.241,0.134,0.329,0.438,0.195,0.68l-3.106,5.611    C38.001,251.121,37.831,251.214,37.655,251.214z"/>
	</g>
	<g>
		<path fill="#FFFFFF" d="M25.36,251.455L25.36,251.455c-1.053-0.525-1.481-1.803-0.956-2.856l3.552-7.128    c0.525-1.053,1.803-1.481,2.856-0.956h0c1.053,0.525,1.481,1.803,0.956,2.856l-3.552,7.128    C27.692,251.551,26.413,251.98,25.36,251.455z"/>
		<path fill="#1D2445" d="M26.309,252.179c-0.409,0-0.803-0.093-1.171-0.277c-0.629-0.313-1.099-0.853-1.321-1.519    c-0.223-0.666-0.173-1.379,0.141-2.008l3.552-7.127c0.447-0.899,1.351-1.458,2.355-1.458c0.409,0,0.803,0.093,1.171,0.277    c1.298,0.647,1.827,2.229,1.181,3.527l-3.552,7.128C28.216,251.621,27.313,252.179,26.309,252.179z M29.864,240.79    c-0.623,0-1.184,0.346-1.461,0.903l-3.552,7.128c-0.194,0.39-0.226,0.832-0.087,1.244s0.429,0.747,0.818,0.941    c0.792,0.395,1.796,0.052,2.187-0.732l3.552-7.127c0.4-0.804,0.072-1.785-0.731-2.186C30.361,240.848,30.117,240.79,29.864,240.79    z"/>
	</g>
	<g>
		<path fill="#FFFFFF" d="M28.658,254.147L28.658,254.147c-1.101-0.549-1.549-1.886-1-2.987l3.715-7.454    c0.549-1.101,1.886-1.549,2.987-1h0c1.101,0.549,1.549,1.886,1,2.987l-3.715,7.454C31.096,254.248,29.759,254.696,28.658,254.147z    "/>
		<path fill="#1D2445" d="M29.649,254.882c-0.424,0-0.832-0.097-1.214-0.287c-0.652-0.325-1.14-0.885-1.37-1.575    c-0.231-0.691-0.18-1.43,0.146-2.083l3.715-7.454c0.465-0.932,1.4-1.511,2.442-1.511c0.424,0,0.832,0.097,1.214,0.287    c1.346,0.67,1.896,2.311,1.226,3.657l-3.715,7.455C31.628,254.302,30.692,254.882,29.649,254.882z M33.368,242.971    c-0.66,0-1.253,0.367-1.548,0.958l-3.715,7.454c-0.206,0.413-0.238,0.882-0.092,1.319s0.454,0.792,0.867,0.998    c0.841,0.418,1.902,0.054,2.317-0.776l3.715-7.454c0.424-0.853,0.076-1.892-0.776-2.317    C33.894,243.033,33.636,242.971,33.368,242.971z"/>
	</g>
	<g>
		<path fill="#FFFFFF" d="M31.162,257.579L31.162,257.579c-1.101-0.549-1.549-1.886-1-2.987l3.715-7.454    c0.549-1.101,1.886-1.549,2.987-1h0c1.101,0.549,1.549,1.886,1,2.987l-3.715,7.454C33.6,257.68,32.263,258.127,31.162,257.579z"/>
		<path fill="#1D2445" d="M32.153,258.313c-0.424,0-0.832-0.097-1.214-0.287c-0.652-0.325-1.14-0.885-1.37-1.575    c-0.231-0.691-0.18-1.43,0.146-2.083l3.715-7.454c0.465-0.932,1.4-1.511,2.442-1.511c0.425,0,0.833,0.097,1.215,0.287    c1.347,0.671,1.896,2.312,1.225,3.658l-3.715,7.454C34.132,257.734,33.196,258.313,32.153,258.313z M35.872,246.403    c-0.66,0-1.253,0.367-1.548,0.958l-3.715,7.454c-0.206,0.413-0.238,0.882-0.092,1.319s0.454,0.792,0.867,0.998    c0.842,0.419,1.903,0.054,2.317-0.776l3.715-7.454c0.425-0.853,0.077-1.892-0.775-2.317    C36.399,246.464,36.141,246.403,35.872,246.403z"/>
	</g>
</g>

            </g>
        </g>
    </g>
    
    <!-- ITEM 4 -->
    <g>
        <defs>
            <clipPath id="clip-path-id-viewbox-item-4">
                <rect x="0.0" y="0.0" width="192.76" height="417.566"/>
            </clipPath>
        </defs>
        <g transform="translate(834.0 230.0) rotate(0.0 186.0 402.5) scale(1.9298609670056028 1.927838952405129)">
            <g clip-path="url(#clip-path-id-viewbox-item-4)" transform="translate(-0.0 -0.0)">
                
<g>
	<g>
		<path fill="#1D2445" d="M16.246,9.2l-0.88,3.15l-0.77,2.75l-1.32-7.17l-0.43-2.34c-0.09-0.94,0.39-1.76,1.11-2.02    c0,0,0-0.01,0.01-0.01c0.26-0.06,0.52,0.1,0.59,0.36L16.246,9.2z"/>
	</g>
	<g>
		<path fill="#1D2445" d="M14.106,16.86l0.49-1.76l0.77-2.75l-2.09-4.42l-0.59-1.25c-0.09-0.26-0.37-0.38-0.63-0.29    c0,0.01,0,0.01-0.01,0.01c-0.68,0.35-1.04,1.23-0.83,2.15l2.23,6.93l0.56,1.72L14.106,16.86z"/>
	</g>
	<g>
		<path fill="#1D2445" d="M14.106,16.86l-0.66-1.38l-2.62-5.57c-0.09-0.25-0.38-0.38-0.63-0.28c0,0,0,0-0.01,0.01    c-0.68,0.35-1.05,1.23-0.83,2.15l3.3,10.23l1.35-4.82L14.106,16.86z"/>
	</g>
	<g>
		<g>
			<g>
				<path fill="#FFFFFF" d="M59.676,97.302L40.802,78.686l0.144-0.108l-9.85-18.812L20,44.83l0.129,0.038l-6.613-8.788      c-1.102-1.465-1.447-3.365-0.928-5.124l0.513-1.74l2.598-7.463c0.306-0.864,0.278-1.811-0.077-2.655L14.61,16.67l1.457-3.967      c0.338-0.904,0.473-1.871,0.393-2.833l-0.728-8.92c-0.021-0.269-0.255-0.47-0.524-0.449c-0.004,0-0.008,0.001-0.011,0.001      l-0.025,0.004c-0.901,0.135-1.585,0.88-1.643,1.789l-0.505,8.19l-4.37,8.52l-1.25,1.375c-0.16,0.173-0.412,0.224-0.626,0.126      c-0.222-0.102-0.353-0.334-0.325-0.577c0.162-1.472,0.776-6.173,0.887-6.961c0.118-0.778-0.417-1.505-1.195-1.624      c-0.018-0.003-0.036-0.005-0.054-0.007c-0.666-0.087-1.307,0.283-1.563,0.903c0,0-1.153,3.653-1.839,5.988      c-0.231,0.826-0.579,1.615-1.034,2.342C0.92,21.76,0.522,23.124,0.5,24.519l0.046,3.863c0.028,2.198-0.055,4.39,2.103,6.58      l2.17,3.64l15.728,34.579l7.472,12.881c0.001,0.001,0.002,0.002,0.003,0.004c0.146,0.334,0.32,0.658,0.554,0.955l16.117,20.393      l18.88,19.031l11.457-12.109v-5.05L59.676,97.302z"/>
			</g>
		</g>
		<g>
			<g>
				<path fill="#1D2445" d="M63.575,126.946c-0.133,0-0.261-0.053-0.354-0.148l-18.88-19.031L28.185,87.331      c-0.236-0.298-0.434-0.637-0.62-1.065l0.004-0.002l-7.454-12.832L4.365,38.809L2.252,35.27c-2.157-2.218-2.18-4.433-2.202-6.576      L0,24.525c0.024-1.5,0.449-2.952,1.229-4.216c0.432-0.691,0.76-1.435,0.978-2.214c0.69-2.345,1.845-6.004,1.845-6.004      c0.355-0.868,1.199-1.364,2.105-1.249c1.112,0.168,1.836,1.152,1.677,2.202c-0.117,0.839-0.725,5.491-0.884,6.94l0.455,0.395      l-0.37-0.336l1.205-1.326l4.293-8.368l0.498-8.085c0.072-1.137,0.941-2.084,2.067-2.253C15.122,0.008,15.221,0,15.247,0      c0.513,0,0.945,0.401,0.984,0.913l0.727,8.917c0.086,1.029-0.061,2.083-0.423,3.049l-1.388,3.78l0.936,2.247      c0.403,0.959,0.435,2.031,0.087,3.014l-2.597,7.461l-0.506,1.717c-0.471,1.6-0.153,3.35,0.849,4.681l6.545,8.697      c0.115,0.091,0.188,0.232,0.188,0.39l10.848,14.602l9.893,18.878c0.045,0.086,0.063,0.18,0.055,0.271l18.583,18.329      l15.313,11.947c0.121,0.095,0.192,0.24,0.192,0.394v5.05c0,0.128-0.049,0.251-0.137,0.344L63.938,126.79      c-0.093,0.098-0.222,0.155-0.357,0.156C63.579,126.946,63.577,126.946,63.575,126.946z M4.989,12.432      c0.002,0-1.14,3.621-1.822,5.939c-0.241,0.864-0.607,1.696-1.089,2.466C1.394,21.945,1.02,23.222,1,24.527l0.05,4.157      c0.021,2.048,0.041,3.983,1.957,5.928c0.028,0.029,0.053,0.06,0.073,0.095l2.17,3.639l15.753,34.628l7.45,12.837      c0.18,0.402,0.335,0.67,0.517,0.899l16.118,20.394l18.479,18.623l10.966-11.589v-4.607L59.368,97.696L40.451,79.042      c-0.104-0.102-0.157-0.244-0.147-0.389c0.004-0.054,0.016-0.106,0.036-0.156l-9.688-18.499L19.598,45.128      c-0.059-0.079-0.091-0.171-0.098-0.264l-6.384-8.483c-1.191-1.583-1.568-3.663-1.009-5.565l0.513-1.74l2.604-7.486      c0.266-0.751,0.242-1.566-0.065-2.297l-1.012-2.43c-0.048-0.116-0.051-0.246-0.008-0.365l1.457-3.967      c0.313-0.832,0.438-1.736,0.364-2.619l-0.728-8.921C14.583,1.1,14.07,1.657,14.028,2.327l-0.505,8.189      c-0.004,0.069-0.022,0.136-0.054,0.198l-4.37,8.52c-0.021,0.039-0.046,0.075-0.075,0.108l-1.25,1.375      c-0.305,0.328-0.802,0.427-1.203,0.246c-0.421-0.194-0.668-0.631-0.616-1.088c0.16-1.455,0.77-6.126,0.889-6.974      c0.077-0.51-0.271-0.983-0.774-1.06c-0.087-0.011-0.13-0.014-0.173-0.014C5.498,11.826,5.141,12.064,4.989,12.432z"/>
			</g>
		</g>
	</g>
	<g>
		<path fill="#1D2445" d="M91.197,71.504c2.808-0.707,5.698-0.863,8.552-0.356c1.351,0.24,2.678,0.606,3.974,1.058    c2.758,0.961,4.924,3.185,6.619,5.496c1.043,1.422,1.746,3.069,2.24,4.755c0.58,1.98,0.126,2.605-1.37,3.986    c-2.445,2.257-4.728,4.031-8.068,4.744c-2.192,0.468-1.343-1.34-1.427-2.967c-0.068-1.316,0.078-2.581-0.074-3.904    c-0.38-3.314-1.757-7.014-4.978-8.593c-1.45-0.711-2.937-1.238-4.565-1.356c-0.854-0.062-1.727-0.047-2.575,0.072    c-0.461,0.065-1.442,0.718-1.874,0.491C87.873,73.883,88.884,72.086,91.197,71.504z"/>
		<path fill="#1D2445" d="M102.529,91.761c-0.452,0-0.805-0.134-1.047-0.398c-0.441-0.481-0.378-1.219-0.312-2    c0.032-0.371,0.065-0.756,0.047-1.118c-0.029-0.561-0.021-1.113-0.012-1.663c0.013-0.757,0.024-1.471-0.061-2.209    c-0.268-2.333-1.233-6.501-4.701-8.201c-1.615-0.792-3.008-1.207-4.381-1.306c-0.836-0.061-1.697-0.041-2.47,0.068    c-0.102,0.014-0.338,0.115-0.528,0.197c-0.574,0.246-1.214,0.469-1.647,0.242c-0.198-0.104-0.304-0.328-0.257-0.547    c0.236-1.107,1.325-3.155,3.914-3.806c2.948-0.742,5.929-0.867,8.761-0.364c1.296,0.23,2.659,0.592,4.052,1.078    c2.438,0.851,4.682,2.706,6.857,5.673c0.984,1.343,1.742,2.949,2.315,4.91c0.65,2.219,0.071,3.034-1.511,4.493    c-2.205,2.036-4.662,4.089-8.302,4.866C102.976,91.733,102.741,91.761,102.529,91.761z M91.124,73.831    c0.339,0,0.677,0.013,1.012,0.037c1.505,0.109,3.015,0.555,4.748,1.406c3.896,1.909,4.965,6.449,5.256,8.986    c0.092,0.803,0.079,1.584,0.066,2.34c-0.009,0.528-0.018,1.058,0.01,1.595c0.022,0.431-0.015,0.869-0.048,1.255    c-0.042,0.481-0.093,1.081,0.052,1.238c0.059,0.064,0.219,0.074,0.309,0.074c0.14,0,0.312-0.022,0.511-0.064    c3.075-0.656,5.2-2.192,7.833-4.623c1.457-1.345,1.723-1.792,1.229-3.478c-0.541-1.848-1.248-3.352-2.163-4.6    c-2.052-2.798-4.139-4.538-6.381-5.32c-1.342-0.468-2.652-0.817-3.896-1.037c-2.696-0.479-5.533-0.359-8.343,0.349    c-1.627,0.41-2.523,1.473-2.935,2.343c0.099-0.04,0.198-0.083,0.287-0.121c0.283-0.121,0.55-0.235,0.783-0.268    C89.986,73.868,90.548,73.831,91.124,73.831z"/>
	</g>
	<g>
		<polygon fill="#1D2445" points="58.468,96.11 46.763,109.499 63.575,126.446 75.032,114.337 75.032,109.287 59.676,97.302   "/>
	</g>
	<g>
		<line fill="none" x1="14.106" y1="16.86" x2="14.006" y2="17.2"/>
	</g>
	<g>
		<path fill="#FFFFFF" d="M89.716,298.544l12.702-3.12l40.461-31.818c0,0-6.404-15-6.165-14.491L87.96,269.926L76.904,283.07    l1.108,7.595C78.824,296.23,84.254,299.886,89.716,298.544z"/>
		<path fill="#1D2445" d="M87.431,299.322C87.431,299.322,87.431,299.322,87.431,299.322c-4.938,0-9.2-3.691-9.914-8.585    l-1.108-7.595c-0.021-0.141,0.021-0.285,0.112-0.394l11.056-13.144c0.051-0.06,0.114-0.107,0.187-0.138l48.645-20.764    c0.234-0.177,0.629-0.074,0.758,0.2l-0.001,0.001c0.004,0.01,0.009,0.021,0.013,0.031l0,0c0,0,0,0,0.001,0.001    c0.149,0.386,4.095,9.637,6.16,14.474c0.089,0.208,0.026,0.449-0.151,0.589l-40.461,31.818c-0.056,0.044-0.12,0.075-0.189,0.093    l-12.702,3.12C89.045,299.224,88.236,299.322,87.431,299.322z M77.431,283.22l1.076,7.373c0.643,4.406,4.479,7.729,8.923,7.73    c0.001,0,0.001,0,0.001,0c0.725,0,1.452-0.089,2.165-0.264l12.597-3.094l40.075-31.514c-0.851-1.992-4.87-11.409-5.824-13.676    l-48.179,20.565L77.431,283.22z"/>
	</g>
	<g>
		<path fill="#FFFFFF" d="M71.253,190.193l-3.554,25.168l10.703,78.195c0,0,19.456,1.28,19.476,0.749l3.037-51.692l2.427-48.409    L71.253,190.193z"/>
		<path fill="#1D2445" d="M96.373,294.935c-0.009,0-0.018,0-0.027,0c-4.56,0-17.842-0.87-17.976-0.879    c-0.236-0.016-0.43-0.196-0.462-0.431l-10.704-78.195c-0.007-0.046-0.007-0.092,0-0.138l3.555-25.168    c0.038-0.271,0.293-0.459,0.558-0.426l32.089,4.012c0.259,0.032,0.45,0.26,0.437,0.521l-2.427,48.409l-3.037,51.696    C98.355,294.931,97.692,294.935,96.373,294.935z M78.844,293.084c2.274,0.146,13.425,0.851,17.502,0.851h0.001    c0.541,0,0.864-0.013,1.055-0.026l3.016-51.323l2.403-47.941l-31.14-3.893l-3.477,24.612L78.844,293.084z"/>
	</g>
	<g>
		<path fill="#FFFFFF" d="M95.712,276.236l-5.93,37.043c-0.387,2.42-0.552,4.871-0.491,7.321l1.746,70.014    c0,0,16.111,2.535,15.552,2.477l11.625-73.172c0.337-2.122,0.307-4.286-0.09-6.397l-5.494-29.235L95.712,276.236z"/>
		<path fill="#1D2445" d="M106.601,393.591c-0.018,0-0.048-0.002-0.064-0.004c-0.032-0.003-0.063-0.01-0.094-0.019    c-0.863-0.156-11.4-1.818-15.484-2.461c-0.238-0.038-0.416-0.24-0.422-0.481l-1.746-70.014c-0.062-2.469,0.105-4.963,0.496-7.412    l5.931-37.043c0.025-0.156,0.122-0.29,0.262-0.364c0.138-0.073,0.304-0.077,0.447-0.009l16.918,8.05    c0.145,0.069,0.247,0.202,0.276,0.359l5.494,29.235c0.409,2.177,0.439,4.386,0.093,6.568l-11.606,73.055    c0.002,0.03,0.002,0.06-0.001,0.09C107.074,393.397,106.857,393.591,106.601,393.591z M91.526,390.184    c2.208,0.348,12.222,1.925,14.648,2.325l11.545-72.67c0.33-2.069,0.301-4.164-0.087-6.227l-5.447-28.985l-16.086-7.654    l-5.824,36.384c-0.382,2.388-0.545,4.821-0.484,7.229L91.526,390.184z"/>
	</g>
	<g>
		<path fill="#FFFFFF" d="M115.481,182.346l8.505,17.401c1.778,3.638,2.41,7.731,1.812,11.736l-11.807,79.078    c0,0-20.592,0.156-20.608-0.375l-1.189-57.499l-2.012-48.428L115.481,182.346z"/>
		<path fill="#1D2445" d="M107.595,291.082c-14.686,0-14.692-0.222-14.712-0.881l-1.188-57.503l-2.012-48.418    c-0.011-0.269,0.193-0.499,0.462-0.519l25.298-1.914c0.197-0.017,0.397,0.095,0.487,0.279l8.506,17.401    c1.831,3.746,2.473,7.906,1.856,12.03l-11.807,79.078c-0.036,0.244-0.244,0.424-0.49,0.426    C113.996,291.061,111.161,291.082,107.595,291.082z M93.876,289.813c0.767,0.099,3.563,0.269,13.72,0.269    c2.738,0,5.045-0.013,5.965-0.019l11.744-78.655c0.586-3.923-0.024-7.879-1.767-11.443l-8.357-17.096l-24.478,1.852l1.992,47.945    L93.876,289.813z"/>
	</g>
	<g>
		<g>
			<path fill="#1D2445" d="M146.703,260.672l-4.612-4.606l-4.401,6.3c-1.186,1.698-0.983,4.003,0.483,5.467l2.077,2.075     L146.703,260.672z"/>
		</g>
		<g>
			<g>
				<g>
					<path fill="#FFFFFF" d="M156.712,252.289L156.712,252.289l-15.395-15.374l-1.563,1.537c-2.136,2.1-3.876,4.568-5.136,7.285       l-1.938,4.178l-1.842,1.845l8.651,8.64c0.838,0.837,2.022,1.228,3.194,1.055l5.123-0.757c2.593-0.383,5.237,0.154,7.475,1.519       l11.804,7.198c1.087,0.663,2.437,0.728,3.583,0.173l2.265-1.098L156.712,252.289z"/>
				</g>
			</g>
			<g>
				<g>
					<path fill="#1D2445" d="M169.034,270.461L169.034,270.461c-0.78,0-1.544-0.215-2.21-0.621l-11.805-7.198       c-2.125-1.296-4.679-1.814-7.142-1.451l-5.122,0.757c-1.348,0.198-2.674-0.25-3.621-1.196l-8.65-8.64       c-0.195-0.195-0.195-0.512,0-0.707l1.779-1.782l1.901-4.098c1.29-2.781,3.053-5.281,5.239-7.431l1.563-1.537       c0.197-0.191,0.511-0.191,0.704,0.003l31.614,31.573c0.114,0.114,0.166,0.277,0.14,0.437c-0.027,0.16-0.13,0.296-0.275,0.367       l-2.265,1.098C170.312,270.314,169.672,270.461,169.034,270.461z M149.444,260.077c2.151,0,4.26,0.592,6.097,1.712       l11.804,7.197c0.509,0.311,1.093,0.475,1.689,0.475l0,0c0.487,0,0.977-0.112,1.416-0.325l1.632-0.791l-30.767-30.726       l-1.21,1.189c-2.101,2.065-3.794,4.467-5.034,7.139l-1.938,4.178c-0.024,0.053-0.058,0.101-0.1,0.143l-1.488,1.491l8.297,8.287       c0.725,0.724,1.745,1.067,2.768,0.914l5.122-0.757C148.297,260.119,148.873,260.077,149.444,260.077z"/>
				</g>
			</g>
		</g>
		<g>
			
				<rect x="135.846" y="250.143" transform="matrix(-0.7076 -0.7066 0.7066 -0.7076 92.0345 541.718)" fill="#1D2445" width="44.522" height="3.344"/>
		</g>
		<g>
			<circle fill="#1D2445" cx="142.175" cy="248.033" r="3.995"/>
		</g>
	</g>
	<g>
		<path fill="#1D2445" d="M100.973,413.368c-1.356,2.443-3.912,3.978-6.706,4.026l-10.039,0.172c-3.24-0.054-5.388-3.38-4.103-6.355    l11.145-25.812l16.168,4.287l-0.2,12.393L100.973,413.368z"/>
	</g>
	<g>
		<path fill="#1D2445" d="M93.093,387.789l11.779-0.495l-0.494-11.774c-0.089-2.13-1.888-3.784-4.018-3.694l-4.066,0.171    c-2.13,0.089-3.784,1.888-3.694,4.018L93.093,387.789z"/>
	</g>
	<g>
		<g>
			<g>
				<path fill="#FFFFFF" d="M109.05,378.756l-6.625,0.2c-1.947,0.052-3.559,1.529-3.781,3.464l-0.193,1.68l-1.158-0.307      l-0.159-1.193c-0.264-1.983-1.982-3.448-3.982-3.394l-2.821,0.076l0.145,5.38l-10.108,23.411      c-1.285,2.975,0.863,6.301,4.103,6.355l10.04-0.172c2.794-0.048,5.35-1.582,6.706-4.026l6.265-11.29l0.2-12.393l-0.022-0.006      L109.05,378.756z"/>
			</g>
		</g>
		<g>
			<g>
				<path fill="#1D2445" d="M84.471,414.928c-0.003,0-0.006,0-0.008,0c-1.689-0.028-3.244-0.892-4.16-2.311      c-0.916-1.419-1.063-3.192-0.394-4.742l10.063-23.31l-0.142-5.27c-0.007-0.276,0.211-0.506,0.486-0.513l2.941-0.078      c2.202,0,4.081,1.646,4.372,3.83l0.114,0.862l0.275,0.073l0.126-1.105c0.25-2.169,2.083-3.848,4.265-3.907l6.623-0.2      c0.151-0.008,0.295,0.059,0.394,0.173c0.098,0.114,0.14,0.266,0.113,0.415l-1.365,7.641c0.004,0.023,0.005,0.047,0.005,0.07      l-0.2,12.393c-0.001,0.082-0.022,0.163-0.063,0.235l-6.265,11.29c-1.438,2.591-4.171,4.232-7.134,4.283l-10.04,0.172      C84.477,414.928,84.474,414.928,84.471,414.928z M90.845,379.768l0.131,4.88c0.002,0.073-0.012,0.145-0.041,0.212      l-10.107,23.412c-0.545,1.262-0.43,2.648,0.315,3.803c0.744,1.153,1.957,1.828,3.328,1.854l10.031-0.172      c2.607-0.045,5.012-1.489,6.276-3.768l6.204-11.181l0.196-12.139c-0.021-0.069-0.025-0.142-0.013-0.215l1.282-7.179      l-6.009,0.182c-1.688,0.045-3.106,1.344-3.299,3.021l-0.192,1.68c-0.017,0.144-0.096,0.274-0.215,0.356      c-0.12,0.082-0.271,0.107-0.41,0.07l-1.158-0.307c-0.196-0.052-0.341-0.217-0.368-0.418l-0.158-1.193      c-0.224-1.688-1.677-2.961-3.38-2.961L90.845,379.768z"/>
			</g>
		</g>
	</g>
	<g>
		<path fill="#1D2445" d="M81.073,100.453l-9.06,0.952l10.866-33.529c0.638-1.968,2.75-3.046,4.718-2.408l1.603,0.519    c7.635,2.474,11.274,11.168,7.678,18.343l-3.977,7.935C90.612,96.833,86.154,99.919,81.073,100.453z"/>
	</g>
	<g>
		<g>
			<path fill="#1D2445" d="M187.657,221.293c-0.362,0.812-1.361,1.297-2.437,1.105l-9.744-2.542l-1.322-0.338l-5.006-1.307     l-0.474-2.432l-0.115-0.602c1.696,0.282,3.497,0.108,5.215-0.063l0.401,0.161l13.133,5.3     C187.602,220.678,187.758,220.998,187.657,221.293z"/>
		</g>
		<g>
			<path fill="#1D2445" d="M181.528,223.39l-7.817-4.696l-8.625-5.181l-1.279-0.153l0.162,4.838l4.974,2.178l10.247,4.489     c0.92,0.376,1.977,0.089,2.581-0.7c0.149-0.275,0.047-0.619-0.229-0.768C181.537,223.395,181.533,223.393,181.528,223.39z"/>
		</g>
		<g>
			<path fill="#1D2445" d="M176.337,225.512c-0.537,0.706-1.603,0.979-2.615,0.563l-14.835-7.493l0.124-5.462l17.125,11.609     c0.27,0.154,0.364,0.498,0.21,0.768C176.343,225.501,176.34,225.506,176.337,225.512z"/>
		</g>
	</g>
	<g>
		<path fill="#1D2445" d="M104.327,110.921l-44.805-7.626l2.617,45.576l64.799-2.879l-11.378-26.258    C113.546,115.086,109.32,111.771,104.327,110.921z"/>
	</g>
	<g>
		<path fill="#1D2445" d="M54.433,110.036l4.12,20.599l-3.558,9.724c-1.266,3.461-0.502,7.339,1.982,10.061l9.287,10.177    l1.277,53.184l56.554-16.105l-13.313-26.592l-0.749-48.689L54.433,110.036z"/>
	</g>
	<g>
		<g>
			<g>
				<path fill="#FFFFFF" d="M192.26,214.138c-0.022-0.312-0.292-0.547-0.604-0.526l-17.461-0.092      c-0.786-0.021-1.57-0.108-2.338-0.28l-7.897-1.782c-0.973-0.22-1.87-0.655-2.634-1.258l-15.108-35.256      c-0.245-0.572-0.561-1.111-0.939-1.605l-11.103-14.491l-17.19-31.208l-11.77,7.315l27.127,51.289l12.292,19.255l-0.051,0.067      l2.084,3.118l5.092,7.976l0.122-0.075l0.068,0.3c0.742,3.032,2.772,5.589,5.558,6.997l-0.011,0.014l14.378,7.571      c0.313,0.183,0.71,0.125,0.957-0.141c0.026-0.03,0.052-0.062,0.076-0.094c0.488-0.662,0.347-1.594-0.314-2.082l-5.607-4.843      c-0.224-0.195-0.391-0.445-0.486-0.726c-0.293-0.873,0.177-1.818,1.049-2.111l9.167-3.698l13.687-1.692      c1.071-0.22,1.818-1.039,1.857-1.926C192.26,214.148,192.26,214.143,192.26,214.138z"/>
			</g>
		</g>
		<g>
			<g>
				<path fill="#1D2445" d="M172.265,232.072c-0.226,0-0.448-0.061-0.644-0.175l-14.359-7.56c-0.038-0.02-0.073-0.045-0.104-0.074      c-2.834-1.477-4.896-4.087-5.677-7.188c-0.056-0.037-0.104-0.086-0.144-0.146l-5.092-7.976l-2.078-3.11      c-0.057-0.084-0.084-0.182-0.084-0.279l-12.163-19.053l-27.147-51.324c-0.122-0.232-0.045-0.52,0.179-0.658l11.77-7.315      c0.116-0.072,0.259-0.094,0.39-0.059c0.133,0.035,0.246,0.122,0.312,0.242l17.19,31.208l11.063,14.428      c0.403,0.527,0.74,1.103,1.002,1.712l15.057,35.137c0.689,0.522,1.494,0.896,2.335,1.086l7.897,1.782      c0.694,0.156,1.449,0.246,2.241,0.268l17.45,0.092c0.568-0.021,1.063,0.435,1.101,0.991c-0.049,1.218-0.977,2.202-2.255,2.465      l-13.661,1.691l-9.106,3.674c-0.638,0.215-0.967,0.878-0.763,1.488c0.066,0.197,0.185,0.373,0.34,0.508l5.607,4.842      c0.852,0.627,1.04,1.875,0.389,2.757c-0.029,0.041-0.064,0.084-0.101,0.126C172.958,231.924,172.618,232.072,172.265,232.072z       M157.849,223.517l14.259,7.507c0.159,0.091,0.273,0.053,0.357-0.039c0.363-0.489,0.27-1.109-0.169-1.433l-5.638-4.867      c-0.291-0.252-0.51-0.579-0.633-0.945c-0.381-1.133,0.231-2.364,1.363-2.745l9.14-3.688c0.041-0.016,0.083-0.027,0.126-0.032      l13.687-1.692c0.768-0.159,1.376-0.761,1.418-1.429c0-0.005,0-0.01,0-0.015c0.004-0.001-0.094-0.026-0.107-0.026l-17.461-0.092      c-0.867-0.024-1.687-0.122-2.444-0.292l-7.898-1.782c-1.025-0.232-2.005-0.7-2.832-1.354c-0.065-0.052-0.117-0.119-0.15-0.195      l-15.108-35.256c-0.229-0.533-0.522-1.037-0.876-1.498l-11.103-14.491l-16.978-30.81l-10.926,6.79l26.909,50.877l12.271,19.22      c0.051,0.08,0.076,0.17,0.078,0.26l1.949,2.917l4.91,7.691c0.027,0.006,0.054,0.015,0.08,0.026      c0.148,0.062,0.258,0.193,0.294,0.35l0.068,0.3c0.707,2.887,2.638,5.318,5.297,6.662      C157.776,223.457,157.815,223.484,157.849,223.517z"/>
			</g>
		</g>
	</g>
	<g opacity="0.1">
		<path fill="#1D2445" d="M70.537,99.175l3.626,0.586c1.316,0.213,1.994,1.693,1.297,2.829l-2.497,4.064"/>
	</g>
	<g>
		<g>
			<g>
				<path fill="#FFFFFF" d="M84.534,92.326l-1.809-5.061l-5.743,2.052l-1.782-2.513l3.681-11.357L68.54,72.095l-1.182,3.647      l-2.862-4.036l-2.032,6.271c-0.074,0.228-0.103,0.468-0.087,0.707l0.161,2.337c0.054,0.785-0.388,1.52-1.106,1.84l-0.644,0.286      l-0.005,0.015L58.84,83.58c-1.356,0.291-1.936,1.905-1.075,2.993l1.357,1.715l-2.036,6.281c-0.783,2.417,1.016,4.896,3.557,4.9      l9.485,0.014l6.538,18.292c0.785,2.197,3.667,2.696,5.146,0.891l8.422-10.282L84.534,92.326z"/>
			</g>
		</g>
		<g>
			<g>
				<path fill="#1D2445" d="M79.501,120.267L79.501,120.267c-1.504,0-2.802-0.912-3.306-2.323l-6.419-17.961l-9.134-0.014      c-1.372-0.002-2.622-0.64-3.429-1.751s-1.026-2.497-0.604-3.803l1.953-6.027l-1.19-1.505c-0.513-0.648-0.651-1.498-0.372-2.275      c0.278-0.777,0.927-1.344,1.734-1.517l1.837-0.395c0.004-0.002,0.008-0.004,0.013-0.006l0.644-0.287      c0.524-0.233,0.85-0.775,0.811-1.349l-0.161-2.336c-0.021-0.299,0.015-0.601,0.109-0.894l2.033-6.272      c0.059-0.18,0.213-0.312,0.4-0.34c0.188-0.026,0.374,0.051,0.483,0.205l2.285,3.223l0.875-2.699      c0.085-0.262,0.364-0.406,0.63-0.321l10.343,3.352c0.126,0.041,0.23,0.13,0.291,0.248s0.071,0.255,0.03,0.382L75.754,86.72      l1.418,1.999l5.386-1.925c0.261-0.092,0.546,0.043,0.639,0.303l7.51,21.121c0.058,0.165,0.026,0.349-0.085,0.484l-8.422,10.282      C81.531,119.8,80.548,120.267,79.501,120.267z M61.067,83.57c-0.054,0.039-0.114,0.067-0.179,0.081l-1.943,0.417      c-0.467,0.1-0.842,0.428-1.004,0.877c-0.161,0.449-0.081,0.942,0.216,1.316l1.356,1.715c0.104,0.131,0.136,0.305,0.084,0.465      l-2.036,6.281c-0.323,0.998-0.155,2.058,0.461,2.907c0.617,0.849,1.572,1.337,2.622,1.339l9.485,0.014      c0.211,0,0.398,0.133,0.47,0.332l6.537,18.292c0.36,1.008,1.288,1.659,2.364,1.659l0,0c0.757,0,1.44-0.325,1.925-0.917      l8.243-10.064l-7.246-20.382l-5.271,1.884c-0.209,0.074-0.446,0.001-0.576-0.182l-1.782-2.513      c-0.091-0.129-0.116-0.293-0.067-0.444l3.527-10.882l-9.392-3.043l-1.028,3.172c-0.059,0.18-0.213,0.312-0.4,0.34      c-0.183,0.028-0.373-0.051-0.483-0.205l-2.285-3.223l-1.726,5.323c-0.055,0.169-0.075,0.343-0.063,0.516l0.161,2.339      c0.067,0.991-0.496,1.928-1.402,2.331L61.067,83.57z"/>
			</g>
		</g>
	</g>
	<g>
		<path fill="#1D2445" d="M80.442,63.937l0.465,0.151c1.968,0.638,3.046,2.75,2.408,4.718l-4.01,12.373l-16.498-5.347l1.123-3.466    C66.163,65.478,73.555,61.705,80.442,63.937z"/>
	</g>
	<g>
		<path fill="#FFFFFF" d="M81.778,90.895l-8.822-2.859l2.613-8.064l8.822,2.859c1.791,0.58,2.772,2.503,2.192,4.294l-0.511,1.578    C85.491,90.494,83.569,91.475,81.778,90.895z"/>
	</g>
	<g>
		
			<rect x="74.793" y="88.059" transform="matrix(0.9513 0.3083 -0.3083 0.9513 32.2301 -19.5861)" fill="#FFFFFF" width="6.611" height="8.288"/>
	</g>
	<g>
		<path fill="#1D2445" d="M72.314,71.018l10.591,3.432l-1.76,5.431c1.649,0.683,3.235,1.31,3.5,1.307    c0.403-0.003-4.791,2.99-8.038,4.84c-0.892,0.508-1.941-0.347-1.624-1.323l1.126-3.474c0.191-0.59-0.132-1.224-0.722-1.415    l-5.36-1.737L72.314,71.018z"/>
	</g>
	<g>
		<path fill="#FFFFFF" d="M63.258,78.714l2.44,0.791c0.283,0.092,0.519,0.293,0.654,0.558l0.686,1.345"/>
		<path fill="#1D2445" d="M67.04,81.907c-0.182,0-0.356-0.1-0.445-0.273l-0.687-1.345c-0.075-0.146-0.207-0.259-0.363-0.31    l-2.44-0.791c-0.263-0.085-0.406-0.367-0.321-0.63c0.085-0.262,0.363-0.407,0.63-0.322l2.44,0.791    c0.412,0.134,0.748,0.42,0.945,0.806l0.687,1.345c0.126,0.246,0.028,0.547-0.218,0.673C67.194,81.89,67.117,81.907,67.04,81.907z"/>
	</g>
	<g>
		<path fill="#FFFFFF" d="M61.937,90.425l-0.664,0.662c-0.364,0.363-0.86,0.56-1.374,0.546l-1.765-0.048l0.715-2.207L61.937,90.425z    "/>
		<path fill="#1D2445" d="M59.95,92.135c-0.005,0-0.06-0.001-0.064-0.001l-1.765-0.048c-0.157-0.004-0.304-0.083-0.395-0.211    s-0.116-0.293-0.067-0.443l0.715-2.208c0.041-0.127,0.132-0.233,0.251-0.293c0.12-0.06,0.259-0.07,0.385-0.027l3.087,1.047    c0.164,0.055,0.287,0.192,0.327,0.36c0.039,0.168-0.012,0.345-0.134,0.467l-0.663,0.662C61.177,91.889,60.583,92.135,59.95,92.135    z M58.816,91.104l1.097,0.03l0.037,0.5v-0.5c0.366,0,0.711-0.143,0.971-0.402l0.093-0.093l-1.845-0.626L58.816,91.104z"/>
	</g>
	<g>
		<g>
			<path fill="#FFFFFF" d="M99.16,78.701c-1.083,0-1.974-0.866-1.998-1.955c-0.047-2.049-0.615-3.718-1.739-5.104     c-0.695-0.858-0.563-2.117,0.294-2.813c0.858-0.696,2.117-0.564,2.813,0.294c1.679,2.071,2.564,4.605,2.63,7.533     c0.025,1.104-0.85,2.02-1.954,2.045C99.191,78.701,99.176,78.701,99.16,78.701z"/>
			<path fill="#1D2445" d="M99.16,79.201c-1.347,0-2.468-1.096-2.498-2.444c-0.044-1.934-0.576-3.504-1.628-4.8     c-0.867-1.071-0.702-2.648,0.367-3.516c1.032-0.838,2.68-0.666,3.518,0.367c1.751,2.161,2.673,4.797,2.741,7.836     c0.016,0.667-0.23,1.301-0.691,1.784c-0.462,0.483-1.084,0.757-1.751,0.772C99.214,79.2,99.164,79.201,99.16,79.201z      M96.975,68.882c-0.348,0-0.674,0.116-0.943,0.335c-0.643,0.521-0.741,1.467-0.221,2.11c1.195,1.475,1.801,3.243,1.851,5.407     c0.018,0.809,0.69,1.466,1.498,1.466v0.5l0.037-0.5c0.398-0.009,0.771-0.173,1.048-0.463c0.277-0.29,0.425-0.67,0.415-1.07     c-0.063-2.813-0.91-5.245-2.519-7.229C97.855,69.085,97.429,68.882,96.975,68.882z"/>
		</g>
	</g>
	<g>
		<polygon fill="#1D2445" points="124.586,141.43 112.136,147.55 105.216,134.95 116.986,127.64   "/>
		<path fill="#1D2445" d="M111.928,148.209l-7.378-13.434l12.619-7.838l8.106,14.71L111.928,148.209z M105.883,135.124l6.462,11.766    l11.551-5.678l-7.093-12.87L105.883,135.124z"/>
	</g>
</g>
<polygon fill="#FFFFFF" points="83.12,209.361 96.989,205.458 96.989,217.882 83.12,217.882 "/>

            </g>
        </g>
    </g>
    
    <!-- ITEM 5 -->
    <g>
        <defs>
            <clipPath id="clip-path-id-viewbox-item-5">
                <rect x="0.0" y="0.0" width="109.077" height="116.238"/>
            </clipPath>
        </defs>
        <g transform="translate(149.0 709.0) rotate(0.0 113.0 120.0) scale(2.0719308378484924 2.064729262375471)">
            <g clip-path="url(#clip-path-id-viewbox-item-5)" transform="translate(-0.0 -0.0)">
                
<g>
	<path fill="#2888FF" d="M49.127,113.841h31.156c0.688,0,1.246-0.573,1.202-1.258c-0.093-1.42-1.202-4.733-5.945-4.733   c0,0-1.866,0.24-4.266,0.59c-4.173,0.609-7.425-2.643-7.768-2.986L49.127,113.841z"/>
	<g>
		<path fill="#7EB8FF" d="M92.27,114.824c-0.096,0.743-0.431,1.414-1.186,1.414h-4.485c-0.851,0-1.642-0.443-2.073-1.174    l-0.407-0.695c-0.156-0.336-0.24-0.683-0.24-1.055v-3.068c-1.198-4.793-3.595-13.182-3.595-13.182    c-2.325-6.986-2.361-12.546-2.361-12.87c-2.732,6.207-5.512,8.999-5.512,8.999c-0.3,13.182-11.648,16.705-11.3,17.052    c0.348,0.348,4.793,0.935,7.19,0.587c2.397-0.336,4.254-0.587,4.254-0.587c5.309,0,6.531,3.188,6.531,4.649    c0,0.683-0.503,1.342-1.198,1.342H33.549c-4.661,0-8.508-1.007-12.235-1.977c-3.188-0.839-6.183-1.618-9.335-1.618    c-5.824,0-7.106,1.546-7.262,1.774c-0.264,1.067-1.222,1.821-2.325,1.821c-0.096,0-0.204-0.012-0.3-0.024    c-1.318-0.168-2.241-1.366-2.073-2.672c0.12-0.959,1.27-5.692,11.959-5.692c3.763,0,7.214,0.899,10.545,1.774    c3.427,0.899,6.974,1.821,11.025,1.821c0.084,0,0.168,0,0.24,0.012h0.12c2.337,0,3.235-2.049,3.235-4.158    c0-13.182,3.068-20.671,7.394-27.909c4.59-7.693,15.398-15.626,15.398-15.626c2.397-4.458,6.483-4.697,7.166-7.442    s-1.953-6.052-4.793-10.785c-3.595-5.992-2.337-13.577-2.337-13.577c0.288,0.383,0.587,0.743,0.899,1.078    c7.466,8.149,14.207,10.494,15.968,11.937c0.288,0.236,14.609,10.939,14.717,17.339c0.108,6.195-1.397,10.881-2.823,13.074    c-0.036,0.072-0.06,0.108-0.06,0.108c-0.911,1.378-1.198,2.481-1.198,4.134v5.452c0,4.793-0.995,8.892,0,11.983    c1.294,4.05,1.198,14.38,1.198,14.38C91.068,111.445,92.39,113.841,92.27,114.824z"/>
	</g>
	<path fill="#2888FF" d="M81.151,40.244c0.505-1.362,4.461-4.218,7.542-5.588c3.081-1.37,3.424-3.081,3.424-3.081l0.684-4.793   c2.054-10.271,6.506-18.489,6.506-18.489c0-1.37,0-3.424,1.027-4.109c1.027-0.685,1.027-1.712,2.739-3.424   c0.534-0.534,1.037-0.736,1.473-0.759c0.961-0.05,2.531,1.017,3.879,2.264c1.492,1.379,0.618,7.321-4.667,11.164   c-1.384,1.007-1.563,2.491-1.905,9.34c-0.343,6.848-2.204,13.6-2.204,13.6c-3.424,5.82-6.163,15.064-7.533,17.803   c0,0,0.15,4.546,0.15,8.141C92.267,62.313,84.664,45.574,81.151,40.244z"/>
	<path fill="#BEDBFF" d="M69.499,40.743c0,0,0.935,0.935,2.9,2.696c2.493,2.229,6.651,5.8,12.678,10.485   c10.21,7.933,4.314,20.168,3.655,21.462c1.426-2.193,3.643-6.878,3.535-13.074c-0.108-6.399-8.328-16.932-9.838-22.397   c-0.428-1.57-0.524-1.474-0.428-1.57l-0.336,0.036L69.499,40.743z"/>
	<path fill="#7EB8FF" d="M72.398,43.44c1.426,0.18,2.864,0.108,4.29-0.3c1.267-0.359,3.996-2.11,6.141-4.344   c1.08-1.124,1.053-4.574,1.053-4.739c0-1.697-0.399-2.279-0.399-2.279c0.348-1.366-0.445-2.262-0.445-2.262   c-2.397,0-4.175-0.427-4.175-0.427s-0.272-0.419-1.303-1.102c-1.019-0.695-8.042-0.297-8.042-0.297   c0.683-2.744-1.22-7.317-1.22-7.317s-0.515,3.08-1.198,4.793s-2.397,3.595-2.397,3.595c-1.366,1.714-2.397,1.198-3.595,3.595   c-0.108,0.216-0.192,0.443-0.24,0.683C60.14,36.645,65.916,42.673,72.398,43.44z"/>
	<path fill="#2888FF" d="M83.484,31.778c0.348-1.366-0.445-2.262-0.445-2.262c-0.959,0.243-1.445,1.267-1.445,1.267   C82.96,31.007,83.484,31.778,83.484,31.778z"/>
	<path fill="#2888FF" d="M60.409,27.562c0,0,2.51,0.322,4.304,2.581c0.714,0.899,1.427,1.389,2.028,1.654   c0.888,0.391,1.39,1.333,1.237,2.29l-0.604,3.763c-0.152,0.944-1.19,1.462-2.029,1.001c-0.935-0.514-2.167-1.396-3.501-2.899   C58.974,32.725,60.05,29.498,60.409,27.562z"/>
	<path fill="#2888FF" d="M74.784,32.702c0.356-0.945,0.527-2.2,1.38-2.248s1.63,0.389,1.678,1.244   c0.012,0.207-0.083,0.592-0.083,0.592C77.4,32.9,76.539,32.601,74.784,32.702z"/>
</g>

            </g>
        </g>
    </g>
    
    <!-- ITEM 6 -->
    <g>
        <defs>
            <clipPath id="clip-path-id-viewbox-item-6">
                <rect x="0.0" y="0.0" width="110.077" height="117.238"/>
            </clipPath>
        </defs>
        <g transform="translate(147.0 706.0) rotate(0.0 115.0 122.0) scale(2.089446478374229 2.081236459168529)">
            <g clip-path="url(#clip-path-id-viewbox-item-6)" transform="translate(-0.0 -0.0)">
                
<g>
	<g>
		<path fill="#1D2445" d="M49.627,114.341h31.156c0.688,0,1.246-0.573,1.202-1.258c-0.093-1.42-1.202-4.733-5.945-4.733    c0,0-1.866,0.24-4.266,0.59c-4.173,0.609-7.425-2.643-7.768-2.986L49.627,114.341z"/>
		<path fill="#1D2445" d="M80.784,114.841H49.627c-0.226,0-0.424-0.151-0.483-0.37c-0.059-0.218,0.036-0.448,0.231-0.562    l14.38-8.388c0.197-0.115,0.445-0.082,0.605,0.078c0.684,0.684,3.165,2.916,6.369,2.916c0.325,0,0.652-0.024,0.973-0.071    c2.405-0.35,4.274-0.591,4.274-0.591c0.003,0,0.006,0,0.009,0c4.874,0,6.372,3.266,6.499,5.197c0.03,0.464-0.13,0.908-0.45,1.25    C81.712,114.644,81.256,114.841,80.784,114.841z M51.476,113.841h29.307c0.197,0,0.387-0.082,0.521-0.225    c0.129-0.138,0.194-0.316,0.182-0.5c-0.029-0.436-0.425-4.265-5.444-4.266c0.001,0.004-1.839,0.241-4.195,0.584    c-0.368,0.053-0.744,0.081-1.117,0.081c-3.234,0-5.776-1.995-6.797-2.94L51.476,113.841z"/>
	</g>
	<g>
		<g>
			<path fill="#FFFFFF" d="M92.77,115.324c-0.096,0.743-0.431,1.414-1.186,1.414h-4.485c-0.851,0-1.642-0.443-2.073-1.174     l-0.407-0.695c-0.156-0.336-0.24-0.683-0.24-1.055v-3.068c-1.198-4.793-3.595-13.182-3.595-13.182     c-2.325-6.986-2.361-12.546-2.361-12.87c-2.732,6.207-5.512,8.999-5.512,8.999c-0.3,13.182-11.648,16.705-11.3,17.052     c0.348,0.348,4.793,0.935,7.19,0.587c2.397-0.336,4.254-0.587,4.254-0.587c5.309,0,6.531,3.188,6.531,4.65     c0,0.683-0.503,1.342-1.198,1.342H34.049c-4.661,0-8.508-1.007-12.235-1.977c-3.188-0.839-6.183-1.618-9.335-1.618     c-5.824,0-7.106,1.546-7.262,1.774c-0.264,1.067-1.222,1.821-2.325,1.821c-0.096,0-0.204-0.012-0.3-0.024     c-1.318-0.168-2.241-1.366-2.073-2.672c0.12-0.959,1.27-5.692,11.959-5.692c3.763,0,7.214,0.899,10.545,1.774     c3.427,0.899,6.974,1.821,11.025,1.821c0.084,0,0.168,0,0.24,0.012h0.12c2.337,0,3.235-2.049,3.235-4.158     c0-13.182,3.068-20.671,7.394-27.909c4.59-7.693,15.398-15.626,15.398-15.626c2.397-4.458,6.483-4.697,7.166-7.442     s-1.953-6.052-4.793-10.785c-3.595-5.992-2.337-13.577-2.337-13.577c0.288,0.383,0.587,0.743,0.899,1.078     c7.466,8.149,14.207,10.494,15.968,11.937c0.288,0.236,14.609,10.939,14.717,17.339c0.108,6.195-1.397,10.881-2.823,13.074     c-0.036,0.072-0.06,0.108-0.06,0.108c-0.911,1.378-1.198,2.481-1.198,4.134v5.452c0,4.793-0.995,8.892,0,11.983     c1.294,4.05,1.198,14.38,1.198,14.38C91.568,111.945,92.89,114.341,92.77,115.324z"/>
			<path fill="#1D2445" d="M91.584,117.238h-4.485c-1.027,0-1.986-0.544-2.504-1.42l-0.408-0.697     c-0.214-0.457-0.308-0.871-0.308-1.307v-3.006c-1.188-4.74-3.552-13.022-3.576-13.105c-1.54-4.627-2.083-8.667-2.275-10.973     c-2.12,4.311-4.085,6.588-4.622,7.17c-0.226,7.289-3.797,12.9-10.618,16.685c0.978,0.167,2.65,0.355,4.246,0.355     c0.663,0,1.233-0.034,1.696-0.101c2.4-0.336,4.259-0.588,4.259-0.588c0.003,0,0.008,0,0.011,0c5.62,0,7.086,3.365,7.086,5.145     c0,1.016-0.762,1.842-1.698,1.842H34.049c-4.707,0-8.575-1.007-12.316-1.982c-3.175-0.835-6.131-1.613-9.253-1.613     c-5.175,0-6.557,1.222-6.805,1.501c-0.389,1.349-1.74,2.24-3.143,2.066c-0.771-0.098-1.455-0.488-1.927-1.099     c-0.473-0.61-0.679-1.367-0.581-2.133c0.128-1.022,1.332-6.129,12.456-6.129c3.855,0,7.321,0.91,10.672,1.79     c3.383,0.887,6.882,1.805,10.897,1.805c0.113,0,0.226,0.003,0.322,0.019l0.038-0.007c2.539,0,2.736-2.8,2.736-3.658     c0-13.011,2.984-20.67,7.464-28.166c4.418-7.406,14.315-14.87,15.441-15.706c1.316-2.391,3.11-3.611,4.556-4.594     c1.249-0.849,2.234-1.519,2.511-2.632c0.503-2.019-1.115-4.596-3.163-7.86c-0.503-0.802-1.035-1.649-1.574-2.547     c-3.647-6.08-2.454-13.599-2.401-13.916c0.033-0.198,0.18-0.356,0.375-0.404c0.194-0.047,0.398,0.026,0.519,0.186     c0.275,0.366,0.566,0.716,0.866,1.039c5.51,6.014,10.572,8.809,13.597,10.479c1.067,0.589,1.837,1.014,2.321,1.411l0.114,0.088     c3.443,2.647,14.687,11.741,14.786,17.628c0.111,6.39-1.495,11.188-2.904,13.355c-0.026,0.06-0.063,0.113-0.063,0.113     c-0.822,1.244-1.114,2.254-1.114,3.857v5.452c0,1.718-0.124,3.314-0.243,4.857c-0.211,2.721-0.393,5.07,0.219,6.973     c1.16,3.629,1.227,11.966,1.224,14.065c0.97,0.125,1.865,0.61,2.562,1.396c0.703,0.793,1.117,1.803,1.031,2.511     C93.116,116.546,92.487,117.238,91.584,117.238z M78.423,84.195c0.034,0,0.068,0.003,0.103,0.011     c0.231,0.049,0.397,0.253,0.397,0.489c0,0.232,0.026,5.774,2.335,12.712c0.03,0.104,2.418,8.472,3.605,13.218     c0.01,0.04,0.015,0.081,0.015,0.121v3.068c0,0.288,0.063,0.564,0.193,0.844l0.385,0.653c0.337,0.571,0.967,0.927,1.642,0.927     h4.485c0.374,0,0.606-0.329,0.69-0.978c0.037-0.302-0.183-1.041-0.787-1.724c-0.441-0.498-1.201-1.091-2.315-1.091     c-0.133,0-0.261-0.053-0.355-0.148c-0.094-0.095-0.146-0.223-0.145-0.356c0.001-0.103,0.08-10.296-1.174-14.223     c-0.672-2.089-0.483-4.53-0.264-7.355c0.118-1.525,0.24-3.101,0.24-4.78v-5.452c0-1.802,0.347-2.997,1.281-4.41     c0.008-0.017,0.048-0.089,0.058-0.105c1.332-2.049,2.85-6.628,2.743-12.793c-0.073-4.323-7.484-11.54-14.395-16.853l-0.139-0.108     c-0.414-0.339-1.189-0.767-2.171-1.309c-3.078-1.7-8.23-4.544-13.849-10.676c-0.055-0.059-0.109-0.118-0.163-0.179     c-0.181,2.316-0.243,7.681,2.398,12.082c0.535,0.892,1.063,1.734,1.563,2.53c2.175,3.465,3.892,6.202,3.287,8.633     c-0.37,1.483-1.551,2.287-2.919,3.217c-1.447,0.984-3.087,2.099-4.292,4.34c-0.035,0.065-0.084,0.122-0.145,0.166     c-0.107,0.079-10.781,7.963-15.265,15.479c-4.396,7.354-7.323,14.871-7.323,27.653c0,2.873-1.432,4.658-3.736,4.658h-0.12     c-0.129-0.015-0.186-0.012-0.24-0.012c-4.144,0-7.707-0.934-11.151-1.838c-3.29-0.864-6.692-1.757-10.418-1.757     c-10.284,0-11.354,4.377-11.463,5.254c-0.064,0.501,0.07,0.996,0.379,1.395c0.31,0.399,0.757,0.655,1.261,0.719     c0.929,0.116,1.847-0.498,2.076-1.421c0.014-0.058,0.039-0.113,0.073-0.162c0.319-0.467,1.817-1.991,7.674-1.991     c3.252,0,6.409,0.831,9.462,1.634c3.723,0.97,7.528,1.961,12.107,1.961h44.338c0.412,0,0.698-0.444,0.698-0.842     c0-1.435-1.26-4.149-6.029-4.149c0,0.004-1.833,0.253-4.187,0.582c-0.507,0.073-1.126,0.111-1.837,0.111     c-1.675,0-5.232-0.296-5.776-0.84c-0.111-0.112-0.171-0.291-0.149-0.448c0.046-0.318,0.262-0.435,0.978-0.824     c2.494-1.355,10.083-5.478,10.325-16.146c0.003-0.128,0.055-0.25,0.146-0.341c0.027-0.028,2.754-2.816,5.409-8.849     C78.046,84.309,78.227,84.195,78.423,84.195z"/>
		</g>
	</g>
	<g>
		<path fill="#1D2445" d="M81.651,40.744c0.505-1.362,4.461-4.218,7.542-5.588c3.081-1.37,3.424-3.081,3.424-3.081l0.684-4.793    c2.054-10.271,6.506-18.489,6.506-18.489c0-1.37,0-3.424,1.027-4.109s1.027-1.712,2.739-3.424    c0.534-0.534,1.037-0.736,1.473-0.759c0.961-0.05,2.531,1.017,3.879,2.264c1.492,1.379,0.618,7.321-4.667,11.164    c-1.384,1.007-1.563,2.491-1.905,9.34c-0.343,6.848-2.204,13.6-2.204,13.6c-3.424,5.82-6.163,15.064-7.533,17.803    c0,0,0.15,4.546,0.15,8.141C92.767,62.813,85.164,46.074,81.651,40.744z"/>
		<path fill="#1D2445" d="M92.766,63.313c-0.041,0-0.082-0.005-0.122-0.015c-0.154-0.039-0.276-0.147-0.336-0.286    c-0.153-0.338-7.641-16.786-11.074-21.994c-0.087-0.133-0.106-0.3-0.051-0.449c0.59-1.592,4.754-4.513,7.808-5.871    c2.758-1.226,3.135-2.715,3.138-2.73l0.678-4.758c1.919-9.602,5.958-17.509,6.501-18.543c0.001-1.468,0.035-3.59,1.25-4.401    c0.411-0.274,0.623-0.618,0.942-1.137c0.359-0.583,0.805-1.308,1.721-2.224c0.568-0.567,1.173-0.872,1.8-0.904    c0.001,0,0.002,0,0.003,0c1.498,0,3.462,1.675,4.241,2.396c0.593,0.548,0.877,1.567,0.801,2.868    c-0.144,2.438-1.673,6.275-5.514,9.067c-1.195,0.869-1.364,2.258-1.7,8.96c-0.342,6.824-2.202,13.64-2.221,13.708    c-0.012,0.042-0.029,0.083-0.051,0.121c-2.215,3.766-4.176,9.073-5.607,12.948c-0.765,2.07-1.375,3.721-1.853,4.711    c0.023,0.747,0.143,4.686,0.146,7.892c0.013,0.044,0.02,0.092,0.02,0.141c0,0.279-0.242,0.485-0.509,0.5    C92.773,63.313,92.769,63.313,92.766,63.313z M82.222,40.711c1.653,2.673,7.655,14.307,10.025,19.656    c-0.04-2.89-0.13-5.643-0.131-5.678c-0.003-0.083,0.015-0.166,0.052-0.24c0.462-0.924,1.113-2.686,1.866-4.725    c1.437-3.89,3.402-9.211,5.648-13.05c0.187-0.696,1.851-7.064,2.169-13.43c0.337-6.732,0.492-8.542,2.111-9.719    c3.558-2.587,4.973-6.097,5.103-8.317c0.057-0.968-0.123-1.744-0.481-2.075C107.184,1.837,105.821,1,105.112,1    c-0.413,0.021-0.798,0.227-1.186,0.614c-0.833,0.832-1.245,1.502-1.576,2.041c-0.347,0.563-0.646,1.049-1.239,1.445    c-0.805,0.537-0.805,2.513-0.805,3.693c0,0.083-0.021,0.165-0.061,0.238c-0.044,0.082-4.441,8.276-6.455,18.349l-0.679,4.766    c-0.021,0.108-0.436,2.01-3.716,3.467C86.313,36.983,82.941,39.516,82.222,40.711z"/>
	</g>
	<g>
		<path fill="#FFFFFF" d="M69.998,41.243c0,0,0.935,0.935,2.9,2.696c2.493,2.229,6.651,5.8,12.678,10.485    c10.21,7.933,4.314,20.168,3.655,21.462c1.426-2.193,3.643-6.878,3.535-13.074c-0.108-6.399-8.328-16.932-9.838-22.397    c-0.428-1.57-0.524-1.474-0.428-1.57l-0.336,0.036L69.998,41.243z"/>
		<path fill="#1D2445" d="M89.231,76.387c-0.085,0-0.171-0.022-0.25-0.067c-0.23-0.133-0.316-0.423-0.196-0.66    c0.676-1.328,6.321-13.197-3.516-20.84c-6.033-4.69-10.239-8.302-12.705-10.507c-1.953-1.751-2.881-2.677-2.92-2.716    c-0.131-0.131-0.179-0.323-0.125-0.5s0.201-0.309,0.383-0.345l12.543-2.403c0.22-0.022,0.414,0.09,0.504,0.281    c0.045,0.094,0.059,0.197,0.043,0.295c0.069,0.194,0.202,0.573,0.417,1.359c0.588,2.128,2.267,5.126,4.044,8.299    c2.692,4.808,5.745,10.258,5.812,14.22c0.123,7.043-2.736,12.003-3.615,13.355C89.556,76.306,89.395,76.387,89.231,76.387z     M71.037,41.551c0.478,0.452,1.207,1.131,2.194,2.016c2.454,2.194,6.641,5.791,12.651,10.463c4.917,3.82,6.21,8.611,6.125,12.766    c0.183-1.227,0.283-2.556,0.258-3.974c-0.063-3.711-3.049-9.044-5.684-13.749c-1.808-3.228-3.515-6.277-4.136-8.523    c-0.161-0.588-0.273-0.936-0.345-1.147L71.037,41.551z"/>
	</g>
	<g>
		<path fill="#FFFFFF" d="M72.898,43.94c1.426,0.18,2.864,0.108,4.29-0.3c1.267-0.359,3.996-2.11,6.141-4.344    c1.08-1.124,1.053-4.574,1.053-4.739c0-1.697-0.399-2.279-0.399-2.279c0.348-1.366-0.445-2.262-0.445-2.262    c-2.397,0-4.175-0.427-4.175-0.427s-0.272-0.419-1.303-1.102c-1.019-0.695-8.042-0.297-8.042-0.297    c0.683-2.744-1.22-7.317-1.22-7.317s-0.515,3.08-1.198,4.793s-2.397,3.595-2.397,3.595c-1.366,1.714-2.397,1.198-3.595,3.595    c-0.108,0.216-0.192,0.443-0.24,0.683C60.64,37.145,66.415,43.173,72.898,43.94z"/>
		<path fill="#1D2445" d="M74.349,44.533C74.349,44.533,74.349,44.533,74.349,44.533c-0.495,0-1.003-0.032-1.513-0.097    c-4.506-0.533-8.498-3.497-10.452-6.197c-1.248-1.723-1.781-3.428-1.503-4.8c0.054-0.267,0.149-0.54,0.283-0.807    c0.759-1.518,1.491-1.985,2.199-2.437c0.479-0.306,0.933-0.595,1.452-1.246c0.038-0.043,1.683-1.862,2.324-3.469    c0.655-1.644,1.165-4.661,1.169-4.691c0.037-0.22,0.215-0.389,0.436-0.414c0.228-0.026,0.433,0.099,0.519,0.305    c0.075,0.179,1.695,4.118,1.36,6.979c0.756-0.034,2.09-0.083,3.421-0.083c3.166,0,3.962,0.266,4.301,0.497    c0.734,0.487,1.117,0.856,1.3,1.065c0.484,0.1,1.999,0.377,3.896,0.377c0.144,0,0.28,0.062,0.375,0.169    c0.038,0.043,0.889,1.028,0.598,2.524c0.148,0.329,0.371,1.041,0.371,2.348c0.002,0.908-0.079,3.926-1.192,5.086    c-2.179,2.268-5,4.091-6.366,4.479C76.37,44.394,75.369,44.533,74.349,44.533z M68.938,22.773    c-0.218,0.995-0.521,2.199-0.872,3.078c-0.708,1.778-2.419,3.667-2.492,3.747c-0.602,0.757-1.172,1.12-1.675,1.441    c-0.647,0.413-1.207,0.77-1.842,2.041c-0.094,0.188-0.161,0.376-0.197,0.557c-0.222,1.096,0.251,2.522,1.333,4.016    c1.827,2.523,5.554,5.293,9.763,5.791c0.472,0.059,0.938,0.089,1.391,0.089c0,0,0,0,0,0c0.927,0,1.836-0.125,2.703-0.373    c1.082-0.307,3.739-1.941,5.918-4.21c0.636-0.662,0.917-2.677,0.914-4.38c0-1.479-0.316-2.016-0.319-2.021    c-0.07-0.115-0.098-0.264-0.064-0.394c0.198-0.782-0.056-1.367-0.22-1.641c-2.295-0.028-3.96-0.421-4.032-0.438    c-0.125-0.03-0.233-0.107-0.303-0.214l0,0c0,0-0.267-0.366-1.16-0.958c-0.084-0.058-0.637-0.327-3.743-0.327    c-1.983,0-3.974,0.111-3.994,0.113c-0.155,0.009-0.312-0.058-0.414-0.18c-0.101-0.122-0.138-0.285-0.1-0.44    C69.919,26.524,69.406,24.298,68.938,22.773z"/>
	</g>
	<g>
		<path fill="#1D2445" d="M83.984,32.278c0.348-1.366-0.445-2.262-0.445-2.262c-0.959,0.243-1.445,1.267-1.445,1.267    C83.46,31.507,83.984,32.278,83.984,32.278z"/>
		<path fill="#1D2445" d="M83.984,32.778c-0.162,0-0.316-0.079-0.41-0.214c-0.025-0.035-0.458-0.607-1.562-0.789    c-0.155-0.026-0.289-0.123-0.361-0.262c-0.073-0.139-0.076-0.305-0.009-0.447c0.024-0.05,0.602-1.239,1.774-1.536    c0.183-0.046,0.374,0.013,0.498,0.154c0.04,0.045,0.962,1.113,0.555,2.717c-0.048,0.191-0.204,0.335-0.398,0.369    C84.042,32.775,84.013,32.778,83.984,32.778z M82.915,30.977c0.244,0.086,0.454,0.187,0.634,0.292    c-0.04-0.266-0.125-0.482-0.205-0.639C83.176,30.725,83.032,30.851,82.915,30.977z"/>
	</g>
	<g>
		<path fill="#1D2445" d="M60.909,28.062c0,0,2.51,0.322,4.304,2.581c0.714,0.899,1.427,1.389,2.028,1.654    c0.888,0.391,1.39,1.333,1.237,2.29l-0.604,3.763c-0.152,0.944-1.19,1.462-2.029,1.001c-0.935-0.514-2.167-1.396-3.501-2.899    C59.474,33.225,60.55,29.998,60.909,28.062z"/>
		<path fill="#1D2445" d="M66.504,40.021c-0.312,0-0.623-0.081-0.9-0.233c-1.252-0.689-2.475-1.7-3.634-3.005    c-2.745-3.086-2.103-6.16-1.677-8.194c0.046-0.219,0.089-0.425,0.125-0.619c0.048-0.261,0.288-0.442,0.555-0.405    c0.111,0.014,2.734,0.376,4.633,2.766c0.565,0.712,1.184,1.219,1.837,1.507c1.09,0.479,1.719,1.642,1.529,2.827l-0.604,3.763    C68.219,39.352,67.435,40.021,66.504,40.021z M61.3,28.656c-0.009,0.045-0.019,0.091-0.029,0.138    c-0.407,1.948-0.965,4.615,1.446,7.325c1.083,1.219,2.217,2.159,3.369,2.793c0.47,0.259,1.184,0.042,1.294-0.642l0.604-3.763    c0.118-0.736-0.271-1.457-0.944-1.753c-0.804-0.354-1.55-0.96-2.218-1.8C63.616,29.435,62.058,28.858,61.3,28.656z"/>
	</g>
	<g>
		<path fill="#1D2445" d="M75.284,33.202c0.356-0.945,0.527-2.2,1.38-2.248s1.63,0.389,1.678,1.244    c0.012,0.207-0.083,0.592-0.083,0.592C77.9,33.4,77.039,33.101,75.284,33.202z"/>
		<path fill="#1D2445" d="M75.284,33.701c-0.159,0-0.308-0.075-0.403-0.204c-0.1-0.136-0.125-0.314-0.065-0.472    c0.071-0.19,0.135-0.393,0.198-0.595c0.269-0.854,0.603-1.918,1.622-1.976l0.154-0.004c1.15,0,1.994,0.707,2.05,1.719    c0.016,0.261-0.069,0.632-0.096,0.74c-0.011,0.047-0.03,0.092-0.054,0.134c-0.38,0.647-1.112,0.647-1.596,0.647l-0.961-0.011    c-0.248,0-0.521,0.005-0.821,0.022C75.303,33.701,75.293,33.701,75.284,33.701z M76.134,32.678l0.961,0.011    c0.485,0,0.634-0.046,0.7-0.109c0.028-0.136,0.052-0.292,0.049-0.354c-0.032-0.574-0.587-0.777-1.052-0.777    c-0.394,0.02-0.582,0.519-0.806,1.229C76.036,32.679,76.085,32.678,76.134,32.678z"/>
	</g>
</g>

            </g>
        </g>
    </g>
    
</svg>