<?xml version="1.0" encoding="UTF-8"?><svg version="1.1" id="Layer_1" xmlns="http://www.w3.org/2000/svg" xmlns:xlink="http://www.w3.org/1999/xlink" x="0px" y="0px" width="95.65px" height="44.958px" viewBox="0 0 95.65 44.958" enable-background="new 0 0 95.65 44.958" xml:space="preserve">
<g>
	<g>
		<path fill="#FFFFFF" d="M52.187,41.873c-4.302,0.268-11.24,0.867-14.159-0.421L26.519,16.105c3.474-1.36,8.974-6.832,15.199-6.832
			c12.059,0,12.065,1.304,20.793,1.02c10.006-0.326,15.467-2.992,24.182,0.305c10.284,3.891,10.84,22.839,3.561,27.713
			c-3.631,2.431-14.957,2.885-14.957,2.885S65.29,42.248,52.187,41.873z"/>
		<path fill="#1D2445" d="M44.158,42.747c-2.981,0-5.053-0.274-6.332-0.839c-0.112-0.049-0.202-0.139-0.253-0.25L26.064,16.312
			c-0.057-0.125-0.06-0.268-0.008-0.396c0.051-0.127,0.152-0.228,0.28-0.277c1.064-0.416,2.344-1.247,3.824-2.208
			c3.197-2.075,7.176-4.658,11.558-4.658c6.16,0,9.175,0.337,11.834,0.635c2.558,0.285,4.695,0.526,8.942,0.386
			c3.11-0.102,5.726-0.424,8.256-0.735c2.463-0.305,4.789-0.591,7.13-0.591c3.133,0,5.989,0.528,8.989,1.663
			c4.648,1.759,7.872,6.728,8.625,13.291c0.764,6.656-1.231,12.807-4.963,15.305c-3.706,2.481-14.746,2.95-15.214,2.97
			c-0.041,0.005-7.322,0.759-17.425,0.759c-1.919,0-3.844-0.027-5.721-0.081l-1.157,0.076C48.99,42.582,46.468,42.747,44.158,42.747
			z M38.402,41.066c1.157,0.452,3.092,0.682,5.756,0.682c2.277,0,4.781-0.164,6.792-0.295l1.206-0.078
			c1.913,0.053,3.828,0.08,5.737,0.08c10.047,0,17.28-0.748,17.352-0.756c0.145-0.007,11.259-0.479,14.73-2.803
			c3.375-2.261,5.236-8.165,4.526-14.36c-0.71-6.185-3.694-10.847-7.985-12.47c-2.884-1.091-5.628-1.599-8.636-1.599
			c-2.279,0-4.576,0.283-7.008,0.583c-2.433,0.3-5.19,0.64-8.345,0.743c-4.328,0.138-6.494-0.103-9.087-0.393
			c-2.633-0.294-5.618-0.628-11.723-0.628c-4.086,0-7.927,2.493-11.013,4.497c-1.318,0.855-2.481,1.61-3.521,2.093L38.402,41.066z"/>
	</g>
	<g>
		<path fill="#FFFFFF" d="M46.524,28.601c0,0,7.338,10.917,4.038,13.378s-16.53,1.02-16.53,1.02l-1.178-6.161L46.524,28.601z"/>
		<path fill="#1D2445" d="M41.943,43.918c-4.043,0-7.927-0.418-7.965-0.422c-0.219-0.023-0.396-0.188-0.438-0.403l-1.178-6.161
			c-0.039-0.205,0.054-0.414,0.233-0.522l13.67-8.237c0.225-0.134,0.523-0.072,0.673,0.149c0.778,1.158,7.5,11.39,3.922,14.058
			C49.492,43.401,46.492,43.918,41.943,43.918z M34.453,42.539c1.054,0.102,4.22,0.379,7.49,0.379c5.392,0,7.5-0.729,8.32-1.34
			c2.059-1.535-1.2-8.188-3.892-12.302l-12.961,7.81L34.453,42.539z"/>
	</g>
	<g>
		<path fill="#1D2445" d="M15.898,31.054c0,0-5.61,2.925-8.811,3.181S0,35.644,0,38.589s8.88,1.921,8.88,1.921l11.653-4.642
			L15.898,31.054z"/>
	</g>
	<g>
		<path fill="#FFFFFF" d="M21.991,35.919c0,0-2.807-1.451-6.651-0.885c-3.227,0.475-7.704,2.225-7.453,5.49
			c0.251,3.265,9.044,2.931,10.97,2.261c0,0,4.516,0.72,7.031,0.863C28.404,43.791,32.41,38.264,21.991,35.919z"/>
		<path fill="#1D2445" d="M25.986,44.151c0.004,0.004-0.115-0.002-0.126-0.004c-2.314-0.131-6.217-0.732-6.963-0.85
			c-0.847,0.258-2.462,0.429-4.098,0.429c-2.155,0-7.191-0.309-7.41-3.164c-0.292-3.795,4.814-5.571,7.878-6.023
			c0.614-0.09,1.241-0.136,1.863-0.136c2.732,0,4.661,0.864,5.028,1.042c6.562,1.491,7.273,4.141,7.112,5.59
			C29.073,42.818,27.374,44.151,25.986,44.151z M18.857,42.285c0.026,0,0.053,0.002,0.079,0.006c0.045,0.008,4.52,0.719,6.98,0.858
			l0.069,0.502v-0.5c0.926,0,2.154-0.993,2.292-2.228c0.212-1.907-2.12-3.554-6.396-4.516c-0.041-0.01-0.082-0.024-0.119-0.044
			c-0.02-0.01-1.906-0.961-4.632-0.961c-0.573,0-1.151,0.042-1.717,0.126c-2.534,0.373-7.264,1.89-7.028,4.957
			c0.128,1.653,3.535,2.24,6.414,2.24c1.859,0,3.321-0.215,3.894-0.414C18.746,42.294,18.801,42.285,18.857,42.285z"/>
	</g>
	<g>
		<g>
			<g>
				<path fill="#FFFFFF" d="M45.713,16.429c0.284-1.539,0.44-3.749,0.099-6.747c-0.569-5.013-1.99-6.339-3.543-6.339
					c-2.678,0-4.498,2.042-5.641,4.034c-1.027-0.186-2.19-0.298-3.545-0.298c-2.81-0.001-5.316,1.162-5.316,1.162
					s-3.237-1.019-6.903,1.108c-1.746-1.603-5.353-4.565-8.175-4.565c-2.423,0-2.553,7.949-1.729,10.756
					c0.997,3.399,3.073,5.282,3.073,5.282h0l0,0.001c0,0-0.408,4.301,0.278,7.896c0.158,0.83,0.229,1.2,0.528,1.899
					c0.721,1.681,10.995,10.632,15.509,10.344c4.514-0.288,13.914-8.691,15.48-9.408c0.701-2.063,0.927-4.719,0.954-6.889
					C46.82,21.646,46.383,18.73,45.713,16.429z"/>
			</g>
		</g>
		<g>
			<g>
				<path fill="#1D2445" d="M30.129,41.468c-4.883,0-14.961-8.813-15.75-10.653c-0.321-0.754-0.401-1.171-0.56-2.002
					c-0.606-3.18-0.381-6.83-0.306-7.798c-0.547-0.557-2.172-2.395-3.033-5.335c-0.672-2.287-0.804-8.478,0.787-10.603
					c0.491-0.656,1.044-0.794,1.421-0.794c2.821,0,6.275,2.685,8.245,4.454c1.901-1.02,3.667-1.241,4.838-1.241
					c0.94,0,1.637,0.138,1.955,0.216c0.625-0.266,2.857-1.134,5.356-1.134c1.172,0,2.252,0.081,3.289,0.248
					c1.584-2.608,3.617-3.983,5.896-3.983c2.2,0,3.521,2.219,4.04,6.782c0.289,2.546,0.262,4.825-0.083,6.777
					c0.717,2.514,1.091,5.443,1.056,8.268c-0.024,1.968-0.214,4.787-0.98,7.045c-0.045,0.13-0.141,0.236-0.266,0.294
					c-0.388,0.177-1.498,1.024-2.784,2.007c-3.771,2.878-9.471,7.228-12.871,7.444C30.298,41.465,30.214,41.468,30.129,41.468z
					 M12.689,5.284c-0.081,0-0.326,0-0.62,0.394c-1.266,1.69-1.316,7.379-0.629,9.722c0.946,3.227,2.909,5.036,2.929,5.054
					c0.117,0.105,0.177,0.261,0.162,0.417c-0.004,0.043-0.393,4.274,0.271,7.756c0.154,0.808,0.218,1.143,0.497,1.796
					c0.647,1.512,10.421,10.047,14.83,10.047c0.063,0,0.126-0.002,0.187-0.006c3.099-0.197,8.877-4.606,12.328-7.241
					c1.422-1.085,2.269-1.727,2.772-2.016c0.673-2.103,0.843-4.707,0.865-6.547c0.035-2.771-0.337-5.645-1.049-8.09
					c-0.021-0.075-0.025-0.153-0.012-0.23c0.347-1.881,0.378-4.102,0.094-6.6c-0.669-5.896-2.458-5.896-3.046-5.896
					c-2.015,0-3.767,1.272-5.208,3.783c-0.104,0.183-0.318,0.277-0.522,0.243c-1.083-0.196-2.213-0.291-3.455-0.291
					c-2.66,0-5.082,1.104-5.106,1.116c-0.113,0.051-0.243,0.059-0.358,0.023c-0.008-0.002-0.729-0.222-1.847-0.222
					c-1.114,0-2.827,0.224-4.657,1.285c-0.188,0.109-0.428,0.084-0.589-0.064C19.073,8.384,15.402,5.284,12.689,5.284z"/>
			</g>
		</g>
	</g>
	<g>
		<path fill="#1D2445" d="M24.325,27.489c0,0,3.106,2.013,1.778,2.947c-1.528,1.073-3.179,0.784-4.111-0.087
			c-0.574-0.537-0.861-1.191-0.861-1.7S24.325,27.489,24.325,27.489z"/>
	</g>
	<g>
		<path fill="#1D2445" d="M33.617,26.762c0,0-0.358,3.129,0.429,3.464c0.471,0.2,1.661,0.402,2.805-0.234s1.432-1.359,1.222-2.503
			C37.863,26.345,34.951,26.444,33.617,26.762z"/>
	</g>
	<g>
		<path fill="#FFFFFF" d="M37.9,11.545c0.286-2.066,1.784-5.737,3.953-5.737c0,0,1.849,0.54,1.921,5.058
			c0.061,3.834-1.588,6.852-4.206,5.665C37.809,15.733,37.487,14.524,37.9,11.545z"/>
		<path fill="#1D2445" d="M40.68,17.292c-0.427,0-0.87-0.103-1.318-0.307c-2.164-0.981-2.357-2.625-1.957-5.509
			c0.268-1.933,1.759-6.169,4.448-6.169c0.048,0,0.095,0.007,0.141,0.021c0.225,0.065,2.204,0.78,2.28,5.529
			c0.038,2.404-0.578,4.488-1.648,5.575C42.073,16.995,41.4,17.292,40.68,17.292z M41.755,6.311
			c-1.765,0.119-3.102,3.433-3.36,5.303c-0.431,3.107,0.054,3.86,1.38,4.462c0.824,0.372,1.542,0.261,2.139-0.344
			c0.872-0.887,1.394-2.748,1.36-4.858C43.217,7.324,42.032,6.463,41.755,6.311z"/>
	</g>
	<g>
		<path fill="#FFFFFF" d="M18.451,11.694c-0.999-2.119-3.617-4.67-5.282-3.966c-1.287,0.544-1.111,6.194,0.672,8.514
			c1.06,1.379,3.116,2.306,4.15,1.441C19.533,16.393,20.065,15.117,18.451,11.694z"/>
		<path fill="#1D2445" d="M16.977,18.518L16.977,18.518c-1.188,0-2.641-0.811-3.532-1.972c-1.438-1.87-1.94-5.863-1.398-7.923
			c0.189-0.72,0.502-1.176,0.928-1.356c0.249-0.105,0.521-0.158,0.807-0.158c1.997,0,4.258,2.539,5.122,4.372
			c1.731,3.672,1.128,5.147-0.591,6.586C17.959,18.362,17.497,18.518,16.977,18.518z M13.781,8.109c-0.153,0-0.29,0.026-0.418,0.08
			c-0.064,0.027-0.222,0.207-0.35,0.689c-0.482,1.833-0.013,5.45,1.225,7.059c0.692,0.901,1.869,1.581,2.739,1.581l0,0
			c0.286,0,0.52-0.073,0.692-0.219c1.244-1.04,1.939-1.978,0.329-5.393C17.17,10.151,15.148,8.109,13.781,8.109z"/>
	</g>
	<g>
		<path fill="#FFFFFF" d="M24.468,42.972c-1.753-1.056-2.115-4.547-5.826-7.072c-2.153-1.466-2.933-3.043-3.803-5.283
			c0.523-0.536,0.862-0.618,1.715-0.624c2.938-0.025,3.686,2.341,3.98,3.049c0.661,1.593,2.337,2.778,4.116,2.967l0.556,3.012
			C25.268,38.824,25.67,43.696,24.468,42.972z"/>
		<path fill="#1D2445" d="M24.695,43.545c-0.162,0-0.325-0.049-0.484-0.145c-0.841-0.507-1.37-1.438-1.983-2.518
			c-0.799-1.408-1.795-3.16-3.866-4.57c-2.326-1.583-3.15-3.358-3.987-5.516c-0.071-0.183-0.029-0.39,0.108-0.53
			c0.642-0.657,1.136-0.767,2.068-0.774c3.109,0,4.039,2.337,4.389,3.217l0.057,0.142c0.579,1.396,2.104,2.49,3.707,2.661
			c0.221,0.023,0.398,0.188,0.439,0.406l0.534,2.897c0.099,0.281,0.144,0.826,0.144,1.877C25.82,42.021,25.693,43.545,24.695,43.545
			L24.695,43.545z M15.429,30.751c0.754,1.905,1.511,3.385,3.494,4.735c2.264,1.54,3.323,3.404,4.174,4.902
			c0.536,0.944,0.965,1.7,1.533,2.093c0.257-0.592,0.212-2.675,0.115-3.265c-0.014-0.033-0.025-0.068-0.032-0.105l-0.49-2.658
			c-1.833-0.326-3.473-1.584-4.151-3.22l-0.063-0.154c-0.333-0.84-1.028-2.587-3.41-2.587
			C15.955,30.497,15.699,30.539,15.429,30.751z"/>
	</g>
	<g>
		<path fill="#FFFFFF" d="M45.83,31.552c-0.767,1.923-1.397,3.297-3.655,4.636c-3.601,2.135-3.44,4.576-6.033,6.783
			c-0.519-1.068,1.35-3.198,1.227-4.009c-0.16-1.053-2.347-3.694-2.347-3.694s3.2-0.662,4.548-2.821
			c1.343-2.162,2.741-2.607,3.95-2.415C44.562,30.196,45.552,30.877,45.83,31.552z"/>
		<path fill="#1D2445" d="M36.142,43.471c-0.034,0-0.068-0.004-0.103-0.011c-0.151-0.031-0.279-0.132-0.347-0.271
			c-0.414-0.851,0.16-1.957,0.667-2.934c0.214-0.411,0.535-1.032,0.515-1.22c-0.102-0.666-1.427-2.47-2.237-3.449
			c-0.112-0.136-0.145-0.319-0.087-0.484c0.058-0.166,0.198-0.289,0.37-0.324c0.029-0.007,3.01-0.649,4.226-2.597
			c1.108-1.785,2.412-2.69,3.875-2.69c0.195,0,0.389,0.017,0.577,0.046c1.185,0.187,2.343,0.971,2.694,1.824
			c0.049,0.12,0.05,0.255,0.002,0.376c-0.817,2.048-1.527,3.494-3.864,4.88c-1.972,1.169-2.742,2.413-3.558,3.73
			c-0.614,0.992-1.25,2.02-2.406,3.004C36.375,43.429,36.259,43.471,36.142,43.471z M35.888,35.549
			c0.701,0.898,1.843,2.473,1.975,3.338c0.076,0.498-0.229,1.086-0.615,1.829c-0.135,0.26-0.287,0.555-0.416,0.844
			c0.463-0.563,0.82-1.14,1.191-1.738c0.843-1.361,1.714-2.77,3.897-4.063c2.032-1.205,2.639-2.392,3.359-4.178
			c-0.29-0.438-1.028-0.928-1.838-1.055c-1.194-0.2-2.414,0.52-3.447,2.185C38.96,34.369,36.98,35.2,35.888,35.549z"/>
	</g>
	<g>
		<path fill="#1D2445" d="M74.415,30.772c0.462-1.024,1.984-0.824,2.135,0.289c0.147,1.081,0.432,2.103,0.929,2.915
			c1.784,2.913,2.046,2.801,2.046,2.801l-4.229,4.419l-10.77,0.671C64.526,41.867,69.784,41.034,74.415,30.772z"/>
	</g>
	<g>
		<path fill="#FFFFFF" d="M91.569,37.241c0,0-4.48,1.736-8.894-1.056c-2.48-1.569-7.314-1.858-9.507,2.113
			c-1.886,3.417,3.169,3.38,5.07,3.38c1.308,0,8.022,0.111,12.546-0.713C92.536,40.645,92.338,38.5,91.569,37.241z"/>
		<path fill="#1D2445" d="M79.733,42.183L79.733,42.183l-1.62-0.005c-1.517,0-4.673,0-5.602-1.573
			c-0.407-0.69-0.334-1.548,0.219-2.548c1.658-3.003,4.479-3.451,6.012-3.451c1.508,0,3.039,0.422,4.201,1.156
			c1.586,1.004,3.359,1.512,5.271,1.512c1.851,0,3.162-0.495,3.176-0.5c0.229-0.087,0.481,0.001,0.606,0.206
			c0.547,0.896,0.889,2.267,0.422,3.311c-0.283,0.63-0.816,1.033-1.544,1.167C88.229,41.939,84.481,42.183,79.733,42.183z
			 M78.238,41.178l1.495,0.005c4.688,0,8.376-0.238,10.961-0.71c0.399-0.073,0.665-0.267,0.811-0.592
			c0.255-0.568,0.114-1.39-0.18-2.035c-0.576,0.168-1.695,0.428-3.111,0.428c-2.104,0-4.057-0.561-5.806-1.666
			c-1.006-0.637-2.342-1.002-3.666-1.002c-1.313,0-3.727,0.381-5.137,2.935c-0.369,0.669-0.447,1.192-0.232,1.556
			c0.639,1.082,3.618,1.082,4.74,1.082H78.238z"/>
	</g>
	<g>
		<path fill="#FFFFFF" d="M90.134,12.727c0,0-9-12.227-17.617-12.227s-7.924,8.225-6.155,9.551
			c3.654,2.739,7.912,1.906,10.499,1.306C80.578,11.988,86.348,13.743,90.134,12.727z"/>
		<path fill="#1D2445" d="M87.442,13.536c-2.534,0-5.378-0.603-7.887-1.134c-0.961-0.203-1.868-0.396-2.68-0.536
			c-1.358,0.313-2.836,0.597-4.457,0.597c-2.438,0-4.576-0.677-6.356-2.012c-1.109-0.832-1.75-3.563-0.946-5.972
			C65.673,2.807,67.377,0,72.517,0c8.77,0,17.646,11.923,18.02,12.43c0.099,0.134,0.124,0.307,0.069,0.462
			c-0.055,0.156-0.183,0.275-0.342,0.318C89.445,13.43,88.521,13.536,87.442,13.536z M76.861,10.857
			c0.028,0,0.056,0.002,0.084,0.007c0.849,0.145,1.804,0.347,2.817,0.562c2.461,0.521,5.25,1.111,7.68,1.111
			c0.657,0,1.263-0.045,1.81-0.133C87.292,9.943,79.679,1,72.517,1c-4.288,0-5.876,2.064-6.453,3.796
			c-0.682,2.045-0.116,4.319,0.598,4.854c1.627,1.22,3.51,1.813,5.757,1.813c1.56,0,3.003-0.285,4.329-0.594
			C76.785,10.861,76.823,10.857,76.861,10.857z"/>
	</g>
	<g>
		<path fill="#1D2445" d="M76.269,7.884c-3.495,0.274-3.124,2.842,0.592,3.473c1.858,0.316,4.23,0.912,6.61,1.303
			C83.471,12.66,79.587,7.624,76.269,7.884z"/>
	</g>
	<g>
		<path fill="#FFFFFF" d="M42.248,25.901c0,1.588-2.713,2.224-4.175,1.588s-3.833-0.799-4.152,0.649
			c-0.317,1.448,0.382,4.038,2.003,6.453c1.621,2.416,1.95,4.834,1.685,5.912c-0.775,3.148-3.485,3.834-7.153,3.945
			c-4.309,0.13-6.771-1.039-7.289-3.484c-0.272-1.282-0.062-2.786,0.76-4.346c1.26-2.393,1.978-3.42,2.177-4.933
			c0.246-1.867-0.626-3.64-2.025-3.767c-1.398-0.127-2.206,0.272-3.004,0.765c-1.703,1.052-3.791,0.641-4.056-0.682
			c-0.372-1.858,3.139-4.441,5.399-4.672c2.776-0.283,5.72,0.918,7.182,2.952c0,0,1.891-4.421,6.229-4.449
			C40.514,21.802,42.248,24.367,42.248,25.901z"/>
		<path fill="#1D2445" d="M29.819,44.957c-4.191,0-6.594-1.309-7.142-3.89c-0.312-1.471-0.032-3.09,0.808-4.684
			c0.258-0.489,0.493-0.922,0.706-1.313c0.819-1.508,1.271-2.339,1.417-3.451c0.132-0.998-0.096-2.004-0.594-2.627
			c-0.191-0.239-0.518-0.534-0.98-0.576c-1.269-0.116-1.999,0.261-2.696,0.692c-0.7,0.432-1.513,0.67-2.289,0.67
			c-1.326,0-2.315-0.659-2.52-1.68c-0.132-0.659,0.095-1.409,0.655-2.17c1.13-1.531,3.454-2.921,5.183-3.098
			c2.699-0.277,5.484,0.764,7.138,2.546c0.766-1.322,2.763-4.022,6.321-4.045c5.065,0,6.922,2.802,6.922,4.568
			c0,2.036-3.202,2.775-4.874,2.046c-0.614-0.267-1.363-0.426-2.005-0.426c-0.485,0-1.321,0.095-1.46,0.725
			c-0.253,1.159,0.243,3.553,1.931,6.067c1.588,2.367,2.085,4.966,1.755,6.31c-0.894,3.626-4.192,4.222-7.624,4.325
			C30.249,44.954,30.032,44.957,29.819,44.957z M23.572,27.395c0.175,0,0.358,0.008,0.552,0.025
			c0.645,0.059,1.223,0.387,1.672,0.948c0.672,0.84,0.973,2.104,0.805,3.382c-0.171,1.297-0.683,2.238-1.531,3.798
			c-0.211,0.389-0.443,0.817-0.699,1.303c-0.729,1.384-0.977,2.771-0.714,4.01c0.46,2.17,2.776,3.218,6.784,3.087
			c3.611-0.108,5.988-0.742,6.684-3.563c0.216-0.88-0.031-3.154-1.614-5.515c-1.611-2.4-2.446-5.148-2.077-6.838
			c0.212-0.961,1.1-1.511,2.437-1.511c0.771,0,1.67,0.19,2.403,0.509c1.116,0.486,3.476,0.002,3.476-1.129
			c0-1.164-1.427-3.568-5.837-3.568c-4.028,0.024-5.833,4.104-5.852,4.146c-0.071,0.165-0.226,0.28-0.405,0.3
			c-0.179,0.021-0.355-0.06-0.46-0.205c-1.345-1.869-4.08-3.014-6.726-2.747c-1.435,0.147-3.528,1.407-4.479,2.697
			c-0.271,0.368-0.574,0.906-0.479,1.38c0.106,0.532,0.711,0.876,1.539,0.876c0.593,0,1.22-0.185,1.764-0.521
			C21.518,27.821,22.314,27.395,23.572,27.395z"/>
	</g>
	<g>
		<path fill="#1D2445" d="M28.177,38.484c1.056,0.079,2.011,0.293,3.31,0c1.818-0.41,2.424,0.537,2.424,1.714
			c0,0.942-1.071,3.375-3.641,3.358c-2.655-0.017-4.082-1.86-4.082-3.198C26.187,39.09,26.934,38.391,28.177,38.484z"/>
	</g>
</g>
</svg>