<svg width="24" height="25" viewBox="0 0 24 25" fill="none" xmlns="http://www.w3.org/2000/svg">
<g clip-path="url(#clip0)">
<path d="M14.9998 13.2213C14.4469 13.2213 13.9999 13.6693 13.9999 14.2212V18.2213C13.9999 18.7722 13.5519 19.2212 12.9998 19.2212H9.99983V4.22137C9.99983 3.36737 9.45583 2.60438 8.63791 2.32038L8.34183 2.22132H12.9998C13.5519 2.22132 13.9999 2.67029 13.9999 3.22144V6.22141C13.9999 6.77328 14.4469 7.22134 14.9998 7.22134C15.5528 7.22134 15.9998 6.77328 15.9998 6.22141V3.22144C15.9998 1.56746 14.6538 0.221466 12.9998 0.221466H2.24998C2.21189 0.221466 2.18003 0.238495 2.14304 0.243438C2.09489 0.23941 2.04893 0.221466 2.00004 0.221466C0.897024 0.221466 0 1.11831 0 2.22132V20.2211C0 21.0751 0.544001 21.8381 1.36192 22.1221L7.37999 24.1282C7.58397 24.1912 7.78684 24.2212 7.99998 24.2212C9.10299 24.2212 9.99983 23.3242 9.99983 22.2212V21.2213H12.9998C14.6538 21.2213 15.9998 19.8753 15.9998 18.2213V14.2212C15.9998 13.6693 15.5528 13.2213 14.9998 13.2213Z" fill="black"/>
<path d="M23.7068 9.51433L19.7067 5.51443C19.4209 5.22842 18.9908 5.14236 18.6169 5.29727C18.2439 5.45236 17.9998 5.81728 17.9998 6.22139V9.22136H13.9999C13.4479 9.22136 12.9998 9.66924 12.9998 10.2213C12.9998 10.7734 13.4479 11.2212 13.9999 11.2212H17.9998V14.2212C17.9998 14.6253 18.2439 14.9902 18.6169 15.1453C18.9908 15.3002 19.4209 15.2142 19.7067 14.9283L23.7068 10.9283C24.0977 10.5373 24.0977 9.90526 23.7068 9.51433Z" fill="black"/>
</g>
<defs>
<clipPath id="clip0">
<rect width="24" height="24" fill="white" transform="translate(0 0.221161)"/>
</clipPath>
</defs>
</svg>
