<svg width="27" height="25" viewBox="0 0 27 25" fill="none" xmlns="http://www.w3.org/2000/svg">
<path d="M25.3333 12.5145C25.3333 5.1945 19.6533 0.221161 13.3333 0.221161C7.08 0.221161 1.33333 5.08783 1.33333 12.5945C0.533333 13.0478 0 13.9012 0 14.8878V17.5545C0 19.0212 1.2 20.2212 2.66667 20.2212C3.4 20.2212 4 19.6212 4 18.8878V12.4745C4 7.36783 7.93333 2.90116 13.04 2.75449C18.32 2.59449 22.6667 6.83449 22.6667 12.0878V21.5545H13.3333C12.6 21.5545 12 22.1545 12 22.8878C12 23.6212 12.6 24.2212 13.3333 24.2212H22.6667C24.1333 24.2212 25.3333 23.0212 25.3333 21.5545V19.9278C26.12 19.5145 26.6667 18.7012 26.6667 17.7412V14.6745C26.6667 13.7412 26.12 12.9278 25.3333 12.5145Z" fill="#222325"/>
<path d="M9.33333 14.8878C10.0697 14.8878 10.6667 14.2909 10.6667 13.5545C10.6667 12.8181 10.0697 12.2212 9.33333 12.2212C8.59695 12.2212 8 12.8181 8 13.5545C8 14.2909 8.59695 14.8878 9.33333 14.8878Z" fill="#222325"/>
<path d="M17.3333 14.8878C18.0697 14.8878 18.6667 14.2909 18.6667 13.5545C18.6667 12.8181 18.0697 12.2212 17.3333 12.2212C16.597 12.2212 16 12.8181 16 13.5545C16 14.2909 16.597 14.8878 17.3333 14.8878Z" fill="#222325"/>
<path d="M21.3333 10.9278C20.6933 7.12783 17.3866 4.22116 13.4 4.22116C9.35998 4.22116 5.01331 7.56783 5.35998 12.8212C8.65331 11.4745 11.1333 8.54116 11.84 4.96783C13.5866 8.47449 17.1733 10.8878 21.3333 10.9278Z" fill="#222325"/>
</svg>
