<svg width="28" height="29" viewBox="0 0 28 29" fill="none" xmlns="http://www.w3.org/2000/svg">
<path d="M27.6241 13.8086L24.2823 10.4669V5.72416C24.2823 5.01725 23.7039 4.43887 22.997 4.43887H18.2543L14.9126 1.09712C14.4113 0.595861 13.6016 0.595861 13.1003 1.09712L9.7457 4.43887H5.00298C4.29608 4.43887 3.7177 5.01725 3.7177 5.72416V10.4669L0.375947 13.8086C-0.125316 14.3099 -0.125316 15.1196 0.375947 15.6209L3.7177 18.9626V23.7182C3.7177 24.4251 4.29608 25.0035 5.00298 25.0035H9.7457L13.0874 28.3452C13.5887 28.8465 14.3984 28.8465 14.8997 28.3452L18.2415 25.0035H22.997C23.7039 25.0035 24.2823 24.4251 24.2823 23.7182V18.9755L27.6241 15.6337C28.1253 15.1325 28.1253 14.3099 27.6241 13.8086ZM21.6089 15.9808C21.1719 18.7056 19.2311 21.0448 16.622 21.9702C15.0668 22.5229 13.5244 22.5486 12.1235 22.2016C11.5965 22.073 11.5065 21.3661 11.9564 21.0448C13.9743 19.6567 15.2853 17.3432 15.2853 14.7212C15.2853 12.0992 13.9743 9.78567 11.9692 8.39756C11.5194 8.08909 11.5965 7.38218 12.1363 7.2408C13.5373 6.89377 15.0796 6.91948 16.6348 7.47215C19.2311 8.39756 21.1848 10.7368 21.6218 13.4616C21.686 13.8857 21.7117 14.3099 21.7117 14.7212C21.6989 15.1325 21.6732 15.5566 21.6089 15.9808Z" fill="#222325"/>
</svg>
