<svg width="22" height="25" viewBox="0 0 22 25" fill="none" xmlns="http://www.w3.org/2000/svg">
<path d="M19.2 3.12118H18V1.92118C18 1.26118 17.46 0.721176 16.8 0.721176C16.14 0.721176 15.6 1.26118 15.6 1.92118V3.12118H6V1.92118C6 1.26118 5.46 0.721176 4.8 0.721176C4.14 0.721176 3.6 1.26118 3.6 1.92118V3.12118H2.4C1.068 3.12118 0.012 4.20118 0.012 5.52118L0 22.3212C0 23.6412 1.068 24.7212 2.4 24.7212H19.2C20.52 24.7212 21.6 23.6412 21.6 22.3212V5.52118C21.6 4.20118 20.52 3.12118 19.2 3.12118ZM18 22.3212H3.6C2.94 22.3212 2.4 21.7812 2.4 21.1212V9.12118H19.2V21.1212C19.2 21.7812 18.66 22.3212 18 22.3212ZM6 11.5212H9.6C10.26 11.5212 10.8 12.0612 10.8 12.7212V16.3212C10.8 16.9812 10.26 17.5212 9.6 17.5212H6C5.34 17.5212 4.8 16.9812 4.8 16.3212V12.7212C4.8 12.0612 5.34 11.5212 6 11.5212Z" fill="#222325"/>
</svg>
