<svg width="22" height="25" viewBox="0 0 22 25" fill="none" xmlns="http://www.w3.org/2000/svg">
<path d="M19.8 2.52118L18 0.721176L16.2 2.52118L14.4 0.721176L12.6 2.52118L10.8 0.721176L9 2.52118L7.2 0.721176L5.4 2.52118L3.6 0.721176V17.5212H1.2C0.54 17.5212 0 18.0612 0 18.7212V21.1212C0 23.1132 1.608 24.7212 3.6 24.7212H18C19.992 24.7212 21.6 23.1132 21.6 21.1212V0.721176L19.8 2.52118ZM14.4 22.3212H3.6C2.94 22.3212 2.4 21.7812 2.4 21.1212V19.9212H6H10.8H14.4V22.3212ZM19.2 21.1212C19.2 21.7812 18.66 22.3212 18 22.3212C17.34 22.3212 16.8 21.7812 16.8 21.1212V18.7212C16.8 18.0612 16.26 17.5212 15.6 17.5212H13.2H10.8H6V4.32118H19.2V21.1212Z" fill="#222325"/>
</svg>
