<svg width="22" height="25" viewBox="0 0 22 25" fill="none" xmlns="http://www.w3.org/2000/svg">
<path d="M13.2 9.12118H8.40001C7.74001 9.12118 7.20001 8.58118 7.20001 7.92118C7.20001 7.26118 7.74001 6.72118 8.40001 6.72118H13.2C13.86 6.72118 14.4 7.26118 14.4 7.92118C14.4 8.58118 13.86 9.12118 13.2 9.12118Z" fill="#222325"/>
<path d="M13.2 12.7212H8.40001C7.74001 12.7212 7.20001 12.1812 7.20001 11.5212C7.20001 10.8612 7.74001 10.3212 8.40001 10.3212H13.2C13.86 10.3212 14.4 10.8612 14.4 11.5212C14.4 12.1812 13.86 12.7212 13.2 12.7212Z" fill="#222325"/>
<path d="M19.8 2.52118L18 0.721176L16.2 2.52118L14.4 0.721176L12.6 2.52118L10.8 0.721176L9 2.52118L7.2 0.721176L5.4 2.52118L3.6 0.721176V17.5212H1.2C0.54 17.5212 0 18.0612 0 18.7212V21.1212C0 23.1132 1.608 24.7212 3.6 24.7212H18C19.992 24.7212 21.6 23.1132 21.6 21.1212V0.721176L19.8 2.52118ZM14.4 22.3212H3.6C2.94 22.3212 2.4 21.7812 2.4 21.1212V19.9212H6H10.8H14.4V22.3212ZM19.2 21.1212C19.2 21.7812 18.66 22.3212 18 22.3212C17.34 22.3212 16.8 21.7812 16.8 21.1212V18.7212C16.8 18.0612 16.26 17.5212 15.6 17.5212H13.2H10.8H6V4.32118H19.2V21.1212Z" fill="#222325"/>
<path d="M16.8 9.12118C17.4627 9.12118 18 8.58392 18 7.92118C18 7.25843 17.4627 6.72118 16.8 6.72118C16.1372 6.72118 15.6 7.25843 15.6 7.92118C15.6 8.58392 16.1372 9.12118 16.8 9.12118Z" fill="#222325"/>
<path d="M16.8 12.7212C17.4627 12.7212 18 12.1839 18 11.5212C18 10.8584 17.4627 10.3212 16.8 10.3212C16.1372 10.3212 15.6 10.8584 15.6 11.5212C15.6 12.1839 16.1372 12.7212 16.8 12.7212Z" fill="#222325"/>
</svg>
