<svg width="24" height="25" viewBox="0 0 24 25" fill="none" xmlns="http://www.w3.org/2000/svg">
<path d="M2.4 7.92118H2.74286C4.06286 7.92118 5.14286 9.00118 5.14286 10.3212V22.3212C5.14286 23.6412 4.06286 24.7212 2.74286 24.7212H2.4C1.08 24.7212 0 23.6412 0 22.3212V10.3212C0 9.00118 1.08 7.92118 2.4 7.92118ZM12 0.721176C13.32 0.721176 14.4 1.80118 14.4 3.12118V22.3212C14.4 23.6412 13.32 24.7212 12 24.7212C10.68 24.7212 9.6 23.6412 9.6 22.3212V3.12118C9.6 1.80118 10.68 0.721176 12 0.721176ZM21.6 14.4355C22.92 14.4355 24 15.5155 24 16.8355V22.3212C24 23.6412 22.92 24.7212 21.6 24.7212C20.28 24.7212 19.2 23.6412 19.2 22.3212V16.8355C19.2 15.5155 20.28 14.4355 21.6 14.4355Z" fill="#222325"/>
</svg>
