<svg xmlns="http://www.w3.org/2000/svg" viewBox="0 0 355.06 436.27"><defs><style>.cls-1{fill:#fff;stroke:#010100;stroke-linecap:round;stroke-linejoin:round;stroke-width:4.75px;}.cls-2{fill:#010100;}</style></defs><g id="Layer_2" data-name="Layer 2"><g id="Layer_1-2" data-name="Layer 1"><path class="cls-1" d="M178.72,261.33,132,250.7V390.93l176.34,42.49V244.33l-82.86-19.12v51l36.12,8.33v86.64l-82.86-20V78.61L49.12,47.38v-.64L2.37,36.12V359.06l46.75,10.62V230.1l82.86,20v.64M49.12,179.11V98.37l82.86,20v80.73Z"/><polygon class="cls-2" points="95.86 189.09 49.12 178.47 49.12 99.86 95.86 110.48 95.86 189.09"/><polygon class="cls-2" points="225.46 361.18 178.72 350.56 178.72 78.61 225.46 42.49 225.46 361.18"/><polygon class="cls-2" points="95.86 334.29 49.12 372.53 49.12 231.58 95.86 242.21 95.86 334.29"/><polygon class="cls-2" points="178.72 78.61 0.25 33.99 49.12 0 225.46 42.49 178.72 78.61"/><polygon class="cls-2" points="131.98 197.59 95.86 189.09 95.86 138.1 131.98 146.6 131.98 197.59"/><polygon class="cls-2" points="308.32 244.33 225.46 225.21 225.46 172.09 355.06 203.96 308.32 244.33"/><polygon class="cls-2" points="355.06 398.03 308.32 436.27 308.32 244.33 355.06 203.96 355.06 398.03"/><polygon class="cls-2" points="261.58 369.68 225.46 361.18 225.46 310.19 261.58 318.69 261.58 369.68"/></g></g></svg>